<svg width="80" height="80" viewBox="0 0 80 80" fill="none" xmlns="http://www.w3.org/2000/svg">
<path d="M40.0242 45.3673C42.2204 45.3673 44.3879 44.8586 46.2929 43.8961C46.9092 43.5848 47.1554 42.8323 46.8442 42.2161C46.5329 41.5998 45.7792 41.3523 45.1642 41.6648C43.6079 42.4511 41.8304 42.8673 40.0242 42.8673C33.8267 42.8673 28.7842 38.0173 28.7842 32.0561C28.7842 26.0948 33.8267 21.2461 40.0242 21.2461C46.2217 21.2461 51.2804 26.0961 51.2804 32.0561C51.2804 32.5873 51.2392 33.1223 51.1554 33.6448C50.9517 34.9486 49.8654 35.8948 48.5642 35.8948C47.1317 35.8948 45.9679 34.7298 45.9679 33.2986V27.3623C45.9679 26.6711 45.4092 26.1123 44.7179 26.1123C44.0654 26.1123 43.5467 26.6173 43.4892 27.2548C42.5129 26.5473 41.3229 26.1186 40.0279 26.1186C36.7567 26.1186 34.0942 28.7811 34.0942 32.0523C34.0942 35.3236 36.7567 37.9861 40.0279 37.9861C41.7229 37.9861 43.2429 37.2636 44.3254 36.1198C45.2404 37.4898 46.8004 38.3948 48.5729 38.3948C51.1042 38.3948 53.2304 36.5598 53.6267 34.0323C53.7279 33.3823 53.7804 32.7173 53.7804 32.0561C53.7804 24.7173 47.6092 18.7461 40.0242 18.7461C32.4392 18.7461 26.2842 24.7173 26.2842 32.0561C26.2842 39.3948 32.4479 45.3673 40.0242 45.3673ZM40.0279 35.4861C38.1342 35.4861 36.5942 33.9461 36.5942 32.0523C36.5942 30.1586 38.1342 28.6186 40.0279 28.6186C41.9217 28.6186 43.4617 30.1586 43.4617 32.0523C43.4617 33.9461 41.9217 35.4861 40.0279 35.4861Z" fill="white"/>
<path d="M74.2872 31.8125C74.2872 31.4563 74.1359 31.1175 73.8697 30.88L67.3759 25.1138V9.11254C67.3759 8.42129 66.8172 7.86254 66.1259 7.86254H47.9759L43.4059 3.80379C41.4647 2.07754 38.5372 2.07504 36.5897 3.80879L32.0834 7.86254H13.8747C13.1834 7.86254 12.6247 8.42129 12.6247 9.11254V25.3413L6.12719 31.1825C5.86344 31.42 5.71344 31.7588 5.71344 32.1125V32.2913C5.71344 32.2913 5.71094 32.3025 5.71094 32.3075V71.0825C5.71094 74.6213 8.59469 77.5 12.1397 77.5H67.8609C71.4059 77.5 74.2897 74.6213 74.2897 71.0825V32.3088C74.2897 32.3088 74.2872 32.2975 74.2872 32.2925V31.8125ZM71.4359 32.06L69.7559 33.5488L67.3747 35.6588V28.4538L71.4359 32.0588V32.06ZM38.2559 5.67129C39.2497 4.78879 40.7472 4.78504 41.7434 5.67129L44.2097 7.86129H35.8197L38.2559 5.67004V5.67129ZM15.1234 10.3625H64.8747V37.875L55.7559 45.9625L47.7109 53.095C47.5434 53.165 47.3859 53.2638 47.2584 53.41C47.2109 53.4638 47.1909 53.53 47.1547 53.5888L41.9584 58.1963C40.8397 59.1875 39.1584 59.1863 38.0397 58.1963L32.8597 53.6038C32.8184 53.5338 32.7947 53.4588 32.7384 53.395C32.6047 53.245 32.4409 53.1475 32.2659 53.0775L25.2472 46.8538L15.1222 37.8738V10.3625H15.1234ZM12.6234 35.6588L10.4809 33.7613L8.72719 32.2063L12.6234 28.7038V35.6588ZM71.7884 71.0825C71.7884 73.2425 70.0259 75 67.8597 75H12.1384C9.97344 75 8.20969 73.2425 8.20969 71.0825V35.0875L23.7847 48.8975L29.8572 54.2838L11.9347 70.1813C11.4184 70.6388 11.3722 71.4288 11.8297 71.9463C12.0759 72.225 12.4209 72.3663 12.7647 72.3663C13.0597 72.3663 13.3572 72.2625 13.5947 72.0513L31.7409 55.955L36.3809 60.07C37.4134 60.9875 38.7072 61.4475 40.0009 61.4475C41.2947 61.4475 42.5872 60.99 43.6184 60.0713L48.2534 55.96L66.4072 72.0513C66.6447 72.2625 66.9409 72.3663 67.2359 72.3663C67.5797 72.3663 67.9247 72.225 68.1709 71.945C68.6284 71.4288 68.5809 70.6388 68.0647 70.1813L50.1359 54.29L57.0997 48.1138L71.7909 35.0875V71.0825H71.7884Z" fill="white"/>
<path d="M62.0166 15.6461C62.7079 15.6461 63.2666 15.0874 63.2666 14.3961V13.9111C63.2666 13.2199 62.7079 12.6611 62.0166 12.6611C61.3254 12.6611 60.7666 13.2199 60.7666 13.9111V14.3961C60.7666 15.0874 61.3254 15.6461 62.0166 15.6461Z" fill="white"/>
<path d="M62.0166 29.5849C62.7079 29.5849 63.2666 29.0262 63.2666 28.3349V18.6699C63.2666 17.9787 62.7079 17.4199 62.0166 17.4199C61.3254 17.4199 60.7666 17.9787 60.7666 18.6699V28.3349C60.7666 29.0262 61.3254 29.5849 62.0166 29.5849Z" fill="white"/>
</svg>
