<svg width="80" height="80" viewBox="0 0 80 80" fill="none" xmlns="http://www.w3.org/2000/svg">
<g clip-path="url(#clip0_33_850)">
<path d="M79.9235 78.4119L68.2048 47.5416C68.1075 47.2852 67.9233 47.0712 67.6845 46.9366L55.2023 39.9045L58.8466 34.1263C61.0831 30.5773 62.2655 26.4759 62.2655 22.2656C62.2655 9.98826 52.2772 0 39.9999 0C27.7226 0 17.7343 9.98826 17.7343 22.2656C17.7343 26.477 18.9171 30.5785 21.1549 34.1267C21.2148 34.2218 24.7982 39.9048 24.7982 39.9048L12.3156 46.9366C12.0766 47.0712 11.8924 47.2852 11.7951 47.5416L0.0763609 78.4119C-0.098795 78.8731 0.033861 79.3947 0.407767 79.7164C0.782141 80.0383 1.3173 80.0913 1.74714 79.8489L20.5859 69.2355L39.4246 79.8489C39.7816 80.05 40.218 80.05 40.575 79.8489L59.4137 69.2355L78.2525 79.8489C78.4321 79.9502 78.6304 79.9998 78.8276 79.9998C79.102 79.9998 79.3742 79.9037 79.592 79.7166C79.9662 79.3947 80.0987 78.8731 79.9235 78.4119ZM41.1719 60.736C41.905 60.4772 42.5407 59.9788 42.9721 59.2958C43.0316 59.2021 53.0078 43.3843 53.0078 43.3843L58.0889 67.2917L41.1719 76.8224V60.736ZM23.1374 32.8762C21.136 29.7028 20.0782 26.0337 20.0782 22.2654C20.0782 11.2804 29.0151 2.34359 40 2.34359C50.985 2.34359 59.9219 11.2804 59.9219 22.2654C59.9219 26.0329 58.8644 29.7023 56.8642 32.8762C56.7078 33.1242 41.2669 57.6104 40.9975 58.0333C40.995 58.0369 40.9928 58.0407 40.9905 58.0443C40.7732 58.388 40.403 58.5935 40 58.5935C39.5968 58.5935 39.2249 58.3871 39.0072 58.0449C38.8507 57.7966 23.379 33.262 23.1427 32.8848C23.141 32.882 23.1391 32.8792 23.1374 32.8762ZM13.8356 48.7702L24.7599 42.616L22.8568 51.5697C22.7223 52.2029 23.1263 52.8251 23.7593 52.9597C23.8415 52.9772 23.9235 52.9857 24.0041 52.9857C24.5455 52.9857 25.0321 52.608 25.1491 52.0572L26.9924 43.3851L37.0269 59.299C37.4599 59.98 38.096 60.4774 38.8278 60.7358V76.8227L21.9112 67.2919L24.1747 56.6421C24.3093 56.009 23.9052 55.3868 23.2723 55.2521C22.6385 55.1168 22.0168 55.5218 21.8823 56.1546L19.5496 67.1289L3.41589 76.2186L13.8356 48.7702ZM60.4503 67.1291L55.2405 42.6159L66.1644 48.7702L76.5842 76.2186L60.4503 67.1291Z" fill="white"/>
<path d="M52.8906 22.2656C52.8906 15.1578 47.1078 9.375 40 9.375C32.8922 9.375 27.1094 15.1578 27.1094 22.2656C27.1094 29.3734 32.8922 35.1562 40 35.1562C47.1078 35.1562 52.8906 29.3734 52.8906 22.2656ZM29.4531 22.2656C29.4531 16.45 34.1844 11.7188 40 11.7188C45.8156 11.7188 50.5469 16.45 50.5469 22.2656C50.5469 28.0812 45.8156 32.8125 40 32.8125C34.1844 32.8125 29.4531 28.0812 29.4531 22.2656Z" fill="white"/>
<path d="M48.2031 22.2656C48.2031 17.7425 44.5231 14.0625 40 14.0625C35.4769 14.0625 31.7969 17.7425 31.7969 22.2656C31.7969 26.7887 35.4769 30.4688 40 30.4688C44.5231 30.4688 48.2031 26.7887 48.2031 22.2656ZM34.1406 22.2656C34.1406 19.0347 36.7691 16.4062 40 16.4062C43.2309 16.4062 45.8594 19.0347 45.8594 22.2656C45.8594 25.4966 43.2309 28.125 40 28.125C36.7691 28.125 34.1406 25.4966 34.1406 22.2656Z" fill="white"/>
</g>
<defs>
<clipPath id="clip0_33_850">
<rect width="80" height="80" fill="white"/>
</clipPath>
</defs>
</svg>
