<svg width="80" height="80" viewBox="0 0 80 80" fill="none" xmlns="http://www.w3.org/2000/svg">
<path d="M7.82305 7.1998C7.82305 6.54355 8.36758 6.01543 9.02305 6.01543C9.6957 6.01543 10.2395 6.54355 10.2395 7.1998C10.2395 7.87168 9.6957 8.41543 9.02305 8.41543C8.36758 8.41543 7.82305 7.87168 7.82305 7.1998ZM36.0363 11.5998C36.6988 11.5998 37.2363 11.0623 37.2363 10.3998C37.2363 9.7373 36.6988 9.1998 36.0363 9.1998H27.1848C26.5223 9.1998 25.9848 9.7373 25.9848 10.3998C25.9848 11.0623 26.5223 11.5998 27.1848 11.5998H36.0363ZM23.2684 27.8295C23.2684 28.492 23.8059 29.0295 24.4684 29.0295H43.2598C43.9223 29.0295 44.4598 28.492 44.4598 27.8295C44.4598 27.167 43.9223 26.6295 43.2598 26.6295H24.4684C23.8059 26.6295 23.2684 27.167 23.2684 27.8295ZM18.2074 29.0232C18.8637 29.0232 19.4074 28.4959 19.4074 27.8232C19.4074 27.1678 18.8637 26.6232 18.2074 26.6232C17.5355 26.6232 17.0074 27.1678 17.0074 27.8232C17.0074 28.4959 17.5355 29.0232 18.2074 29.0232ZM24.4684 35.4287H43.2598C43.9223 35.4287 44.4598 34.8912 44.4598 34.2287C44.4598 33.5662 43.9223 33.0287 43.2598 33.0287H24.4684C23.8059 33.0287 23.2684 33.5662 23.2684 34.2287C23.2684 34.8912 23.8059 35.4287 24.4684 35.4287ZM18.2074 35.4232C18.8637 35.4232 19.4074 34.8959 19.4074 34.2232C19.4074 33.5678 18.8637 33.0232 18.2074 33.0232C17.5355 33.0232 17.0074 33.5678 17.0074 34.2232C17.0074 34.8959 17.5355 35.4232 18.2074 35.4232ZM18.2074 41.8232C18.8637 41.8232 19.4074 41.2959 19.4074 40.6232C19.4074 39.9678 18.8637 39.4232 18.2074 39.4232C17.5355 39.4232 17.0074 39.9678 17.0074 40.6232C17.0074 41.2959 17.5355 41.8232 18.2074 41.8232ZM18.2074 48.2232C18.8637 48.2232 19.4074 47.6959 19.4074 47.0232C19.4074 46.3678 18.8637 45.8232 18.2074 45.8232C17.5355 45.8232 17.0074 46.3678 17.0074 47.0232C17.0074 47.6959 17.5355 48.2232 18.2074 48.2232ZM55.719 72.1829C54.1818 75.2416 51.0802 77.1998 47.6191 77.1998H15.602C10.5902 77.1998 6.51289 73.1225 6.51289 68.1107V41.8837C6.38525 41.93 6.25176 41.9654 6.1082 41.9654C5.4457 41.9654 4.9082 41.4279 4.9082 40.7654V35.9654C4.9082 35.3029 5.4457 34.7654 6.1082 34.7654C6.25176 34.7654 6.38525 34.8009 6.51289 34.8472V30.6837C6.38525 30.73 6.25176 30.7654 6.1082 30.7654C5.4457 30.7654 4.9082 30.2279 4.9082 29.5654V24.7654C4.9082 24.1029 5.4457 23.5654 6.1082 23.5654C6.25176 23.5654 6.38525 23.6009 6.51289 23.6472V11.8889C6.51289 11.2264 7.05039 10.6889 7.71289 10.6889C8.37539 10.6889 8.91289 11.2264 8.91289 11.8889V68.1107C8.91289 71.799 11.9137 74.7998 15.602 74.7998H47.6191C49.8032 74.7998 51.7901 73.7367 53.0296 72.0189C43.4007 70.7944 35.9262 62.567 35.9262 52.6107C35.9262 51.102 36.1141 49.6389 36.4387 48.2271H24.4684C23.8059 48.2271 23.2684 47.6896 23.2684 47.0271C23.2684 46.3647 23.8059 45.8271 24.4684 45.8271H37.1626C37.6877 44.412 38.3572 43.068 39.1788 41.8279H24.4684C23.8059 41.8279 23.2684 41.2904 23.2684 40.6279C23.2684 39.9654 23.8059 39.4279 24.4684 39.4279H41.0705C44.4 35.7848 49.0746 33.409 54.3082 33.0895V11.8889C54.3082 8.20059 51.3074 5.1998 47.6191 5.1998H15.602C14.9238 5.1998 14.2559 5.30059 13.6176 5.49902C12.9777 5.69434 12.3121 5.34043 12.1152 4.70918C11.9184 4.07637 12.2723 3.40371 12.9051 3.20684C13.7746 2.93652 14.6816 2.7998 15.602 2.7998H47.6191C52.6309 2.7998 56.7082 6.87715 56.7082 11.8889V26.6863C56.8009 26.6634 56.8897 26.6295 56.9895 26.6295C57.652 26.6295 58.1895 27.167 58.1895 27.8295V33.2344C67.7199 34.5485 75.091 42.7249 75.091 52.6107C75.091 63.3372 66.4188 72.0682 55.719 72.1829ZM43.1949 64.5688L43.2582 63.9459C43.5113 61.3982 45.634 59.4748 48.1957 59.4748L50.9824 59.5943C51.309 59.5936 51.6176 59.285 51.6176 58.9053V56.1138C50.2439 55.1232 49.2424 53.6347 48.9348 51.8561L48.3535 48.4951C47.9879 46.3795 48.5715 44.224 49.9543 42.5818C51.3371 40.9396 53.3613 39.9975 55.5082 39.9975C57.6551 39.9975 59.6801 40.9396 61.0629 42.5818C62.4457 44.2248 63.0293 46.3795 62.6637 48.4951L62.0824 51.8561C61.768 53.6743 60.7285 55.1901 59.3066 56.179V58.9053C59.3066 59.285 59.6152 59.5936 59.9949 59.5936L62.7691 59.4756H62.7715C65.384 59.4756 67.5059 61.399 67.7582 63.949L67.8209 64.5703C70.829 61.4742 72.691 57.2585 72.691 52.6107C72.691 43.1365 64.9832 35.4287 55.5082 35.4287C46.034 35.4287 38.3262 43.1365 38.3262 52.6107C38.3262 57.2578 40.1877 61.4728 43.1949 64.5688ZM65.6022 66.4858L65.3699 64.1881C65.2395 62.8678 64.1434 61.8748 62.8199 61.8748L60.0457 61.9928H60.0434C58.291 61.9928 56.9066 60.6076 56.9066 58.9053V57.2285C56.453 57.3253 55.9887 57.3904 55.5082 57.3904C54.9944 57.3904 54.5001 57.3136 54.0176 57.2033V58.9053C54.0176 60.6084 52.6324 61.9936 50.9301 61.9936L48.1434 61.874C46.873 61.8748 45.777 62.8686 45.6457 64.1857L45.4124 66.4841C48.2506 68.5555 51.7335 69.7936 55.5082 69.7936C59.2822 69.7936 62.7645 68.5562 65.6022 66.4858ZM59.7168 51.4467L60.298 48.0857C60.5434 46.6701 60.1527 45.2271 59.227 44.1279C58.3012 43.0279 56.9457 42.3975 55.5082 42.3975C54.0707 42.3975 52.716 43.0279 51.7902 44.1271C50.8645 45.2271 50.4738 46.6701 50.7191 48.0857L51.3004 51.4467C51.6551 53.5006 53.4246 54.9904 55.5082 54.9904C57.5926 54.9904 59.3621 53.5006 59.7168 51.4467Z" fill="white"/>
</svg>
