<svg width="60" height="60" viewBox="0 0 60 60" fill="none" xmlns="http://www.w3.org/2000/svg">
<path d="M45.5689 20.7939C45.2171 17.819 43.8961 15.0424 41.8098 12.8926C39.7235 10.7428 36.9877 9.33928 34.0246 8.89853C31.0615 8.45777 28.0356 9.00429 25.4139 10.4538C22.7922 11.9033 20.7203 14.1751 19.5179 16.9189C18.911 16.8087 18.2956 16.7523 17.6789 16.7504C14.6608 16.7186 11.7532 17.8852 9.59399 19.9942C7.43477 22.1031 6.20013 24.9824 6.16087 28.0004C6.16295 28.6599 6.2321 29.3175 6.36725 29.9629C4.4654 30.8627 2.85769 32.2834 1.73068 34.06C0.603664 35.8367 0.00355942 37.8965 0 40.0004C0.0392529 43.0185 1.27389 45.8978 3.43312 48.0067C5.59234 50.1157 8.49988 51.2822 11.518 51.2504H44.375C48.4678 51.295 52.4111 49.7145 55.3402 46.8557C58.2693 43.9969 59.9451 40.0931 60 36.0004C59.9524 32.114 58.4397 28.3887 55.7641 25.5694C53.0886 22.7501 49.4475 21.0446 45.5689 20.7939ZM44.375 48.7504H11.518C9.16277 48.7827 6.89086 47.8797 5.20037 46.2395C3.50989 44.5992 2.53879 42.3556 2.5 40.0004C2.51074 38.2152 3.07073 36.4764 4.10391 35.0204C5.13709 33.5644 6.59339 32.4617 8.275 31.8621C8.56944 31.7512 8.8113 31.5335 8.95236 31.2523C9.09342 30.971 9.12333 30.647 9.03613 30.3447C8.80009 29.5853 8.67382 28.7961 8.66113 28.0009C8.69992 25.6458 9.67101 23.4022 11.3615 21.7619C13.052 20.1217 15.3239 19.2187 17.6791 19.2509C18.4622 19.2623 19.2406 19.3738 19.9954 19.5829C20.3035 19.6643 20.6311 19.6243 20.9105 19.4712C21.19 19.3181 21.4001 19.0636 21.4975 18.7602C22.3413 16.3011 24.0203 14.2155 26.2425 12.866C28.4646 11.5165 31.0895 10.9884 33.6606 11.3737C36.2318 11.7589 38.5866 13.033 40.3157 14.9745C42.0449 16.916 43.0389 19.402 43.125 22.0004C43.125 22.332 43.2567 22.6499 43.4911 22.8843C43.7255 23.1187 44.0435 23.2504 44.375 23.2504C47.8049 23.2054 51.1126 24.5223 53.573 26.9124C56.0334 29.3025 57.4456 32.5707 57.5 36.0004C57.4456 39.4302 56.0334 42.6984 53.573 45.0885C51.1126 47.4786 47.8049 48.7955 44.375 48.7504Z" fill="white"/>
<path d="M23.1646 35.0753C22.778 35.504 22.2904 35.8293 21.7462 36.0216C21.2019 36.2139 20.6183 36.2672 20.0482 36.1767C19.4781 36.0861 18.9397 35.8546 18.4818 35.5031C18.024 35.1515 17.6612 34.6912 17.4265 34.1639C17.1918 33.6365 17.0925 33.0589 17.1378 32.4834C17.183 31.908 17.3713 31.3529 17.6855 30.8688C17.9998 30.3846 18.43 29.9866 18.9372 29.7109C19.4443 29.4353 20.0123 29.2907 20.5896 29.2903C21.0743 29.2903 21.5535 29.3923 21.9962 29.5898C22.4388 29.7873 22.8349 30.0758 23.1586 30.4366C23.2676 30.5606 23.4001 30.6618 23.5484 30.7344C23.6967 30.8069 23.858 30.8494 24.0228 30.8592C24.1876 30.8691 24.3528 30.8462 24.5087 30.7919C24.6647 30.7376 24.8083 30.6529 24.9313 30.5428C25.0544 30.4326 25.1543 30.2992 25.2255 30.1502C25.2967 30.0012 25.3376 29.8395 25.3459 29.6746C25.3543 29.5097 25.3299 29.3448 25.2741 29.1894C25.2183 29.0339 25.1323 28.8911 25.0211 28.7691C24.2147 27.8751 23.1564 27.2463 21.9857 26.9658C20.8149 26.6852 19.5866 26.766 18.4626 27.1975C17.3387 27.6289 16.3718 28.3909 15.6895 29.3828C15.0073 30.3747 14.6416 31.5501 14.6406 32.7541C14.6397 33.958 15.0036 35.1339 15.6844 36.1269C16.3651 37.1199 17.3308 37.8833 18.4541 38.3165C19.5774 38.7497 20.8056 38.8324 21.9768 38.5536C23.148 38.2749 24.2072 37.6478 25.0149 36.755C25.1314 36.6346 25.2225 36.492 25.2829 36.3358C25.3432 36.1795 25.3715 36.0127 25.3661 35.8453C25.3607 35.6779 25.3217 35.5132 25.2514 35.3612C25.1811 35.2091 25.081 35.0728 24.957 34.9602C24.833 34.8476 24.6876 34.761 24.5295 34.7057C24.3713 34.6504 24.2037 34.6275 24.0366 34.6382C23.8694 34.6489 23.7061 34.6932 23.5564 34.7683C23.4066 34.8434 23.2731 34.9478 23.1646 35.0753Z" fill="white"/>
<path d="M31.7492 26.6504C30.5774 26.6505 29.4319 26.9982 28.4577 27.6493C27.4834 28.3004 26.7241 29.2258 26.2758 30.3085C25.8274 31.3912 25.7102 32.5825 25.9389 33.7318C26.1676 34.881 26.732 35.9367 27.5606 36.7653C28.3893 37.5938 29.445 38.158 30.5943 38.3866C31.7436 38.6152 32.9349 38.4978 34.0175 38.0493C35.1001 37.6008 36.0254 36.8414 36.6765 35.8671C37.3275 34.8927 37.675 33.7472 37.675 32.5754C37.6735 31.0043 37.0486 29.498 35.9377 28.3872C34.8267 27.2763 33.3203 26.6517 31.7492 26.6504ZM31.7492 36.0004C31.0718 36.0004 30.4096 35.7995 29.8464 35.4232C29.2831 35.0468 28.8441 34.5119 28.5849 33.8861C28.3257 33.2602 28.2579 32.5716 28.39 31.9072C28.5222 31.2428 28.8484 30.6325 29.3274 30.1536C29.8064 29.6746 30.4166 29.3484 31.081 29.2162C31.7454 29.084 32.4341 29.1519 33.0599 29.4111C33.6857 29.6703 34.2206 30.1093 34.597 30.6726C34.9733 31.2358 35.1742 31.898 35.1742 32.5754C35.1732 33.4834 34.812 34.354 34.1699 34.9961C33.5278 35.6382 32.6573 35.9994 31.7492 36.0004Z" fill="white"/>
<path d="M44.3499 39.6784H42.9424C44.0121 38.7484 44.7361 37.4841 44.9969 36.0909C45.0305 35.6063 44.953 35.1204 44.7704 34.6702C44.5879 34.2201 44.305 33.8175 43.9434 33.4931C42.448 32.176 40.2093 32.7693 38.864 33.9998C38.6193 34.2235 38.4734 34.5354 38.4586 34.8667C38.4438 35.198 38.5611 35.5216 38.7849 35.7664C39.0087 36.0111 39.3205 36.157 39.6518 36.1718C39.9831 36.1867 40.3068 36.0693 40.5515 35.8455C41.1265 35.3169 41.9724 35.0911 42.2935 35.3705C42.3641 35.4389 42.4194 35.5215 42.4558 35.6128C42.4922 35.7041 42.5088 35.8021 42.5047 35.9003C42.4314 36.8634 40.4942 38.7347 38.7303 39.8797C38.5041 40.0265 38.3315 40.2424 38.2381 40.4952C38.1447 40.7481 38.1355 41.0244 38.212 41.2829C38.2884 41.5414 38.4464 41.7683 38.6623 41.9296C38.8783 42.091 39.1406 42.1783 39.4102 42.1784H44.3499C44.6814 42.1784 44.9994 42.0467 45.2338 41.8123C45.4682 41.5778 45.5999 41.2599 45.5999 40.9284C45.5999 40.5969 45.4682 40.2789 45.2338 40.0445C44.9994 39.8101 44.6814 39.6784 44.3499 39.6784Z" fill="white"/>
<path d="M39.375 23.2503C39.7065 23.2503 40.0244 23.1186 40.2589 22.8842C40.4933 22.6498 40.625 22.3319 40.625 22.0003C40.579 19.7707 39.6509 17.6503 38.0441 16.1038C36.4373 14.5573 34.283 13.711 32.0532 13.7503C31.7217 13.7503 31.4038 13.882 31.1693 14.1165C30.9349 14.3509 30.8032 14.6688 30.8032 15.0003C30.8032 15.3319 30.9349 15.6498 31.1693 15.8842C31.4038 16.1186 31.7217 16.2503 32.0532 16.2503C33.6201 16.2105 35.1389 16.7933 36.2769 17.871C37.415 18.9488 38.0795 20.4336 38.125 22.0003C38.125 22.3319 38.2567 22.6498 38.4911 22.8842C38.7255 23.1186 39.0435 23.2503 39.375 23.2503Z" fill="white"/>
</svg>
