<svg width="59" height="59" viewBox="0 0 59 59" fill="none" xmlns="http://www.w3.org/2000/svg">
<path d="M4.67669 32.9457C4.9372 33.393 4.78568 33.967 4.33814 34.2275C4.18978 34.3137 4.02747 34.3549 3.86728 34.3549C3.54443 34.3549 3.23036 34.188 3.05622 33.8888C0.634542 29.7291 -0.378543 24.9938 0.126535 20.195C1.42884 7.82632 12.5515 -1.17532 24.9199 0.124874C28.7067 0.523546 32.2795 1.85069 35.3726 3.99124L35.0777 2.95788C34.9357 2.45995 35.2241 1.94116 35.722 1.79901C36.2199 1.6571 36.7387 1.9455 36.8808 2.44331L37.9751 6.27862C38.0542 6.55577 38.0013 6.8539 37.8318 7.08698C37.6624 7.32007 37.3952 7.46233 37.1072 7.47276L33.1215 7.61597C33.11 7.61632 33.0986 7.61655 33.0873 7.61655C32.585 7.61655 32.1692 7.2187 32.1511 6.71269C32.1324 6.1953 32.5368 5.76077 33.0543 5.74214L34.5279 5.68929C31.6422 3.63593 28.2866 2.36468 24.7238 1.98968C13.3836 0.794718 3.18525 9.0507 1.99146 20.3915C1.52833 24.7913 2.45693 29.1325 4.67669 32.9457ZM58.1261 37.8151C58.1261 48.9844 49.0392 58.0714 37.8698 58.0714C29.1563 58.0714 21.7106 52.541 18.8574 44.806C15.5736 44.262 12.4664 43.0031 9.74446 41.1213L10.0395 42.1552C10.1816 42.6532 9.89318 43.1719 9.39525 43.3141C9.30935 43.3386 9.22275 43.3503 9.13755 43.3503C8.72939 43.3503 8.35404 43.0817 8.2365 42.6698L7.1422 38.8345C7.0631 38.5573 7.11595 38.2592 7.2854 38.0261C7.45485 37.793 7.72204 37.6508 8.01009 37.6403L11.9958 37.4971C12.5123 37.4813 12.9478 37.8829 12.9663 38.4004C12.9849 38.9178 12.5805 39.3523 12.063 39.371L10.5924 39.4237C12.8818 41.0507 15.4775 42.193 18.23 42.7798C17.8281 41.1905 17.6136 39.5274 17.6136 37.815C17.6136 37.1934 17.6434 36.5787 17.6984 35.9712C16.9458 35.6983 16.2163 35.362 15.5189 34.9655L13.4367 35.8904C13.0826 36.0476 12.6676 35.9708 12.3933 35.6966L9.41857 32.722C9.14435 32.4476 9.06724 32.0329 9.22474 31.6785L10.1491 29.5972C9.56716 28.5737 9.11622 27.4858 8.80392 26.3523L6.68001 25.5348C6.31802 25.3955 6.07931 25.0477 6.07931 24.6598V20.4533C6.07931 20.0654 6.31814 19.7177 6.68001 19.5784L8.80439 18.7606C9.11646 17.6274 9.56728 16.54 10.1495 15.5163L9.22486 13.4344C9.06736 13.0801 9.14446 12.6653 9.41868 12.391L12.3933 9.41632C12.6675 9.14198 13.0822 9.06499 13.4367 9.22249L15.5188 10.1473C16.5424 9.56515 17.6299 9.11444 18.7627 8.80226L19.5806 6.67776C19.7199 6.31589 20.0677 6.07706 20.4555 6.07706H24.6621C25.05 6.07706 25.3977 6.31589 25.537 6.67776L26.3547 8.80226C27.4876 9.11433 28.575 9.56515 29.5987 10.1473L31.6808 9.22249C32.0353 9.06546 32.45 9.1421 32.7242 9.41632L35.6988 12.3909C35.973 12.6652 36.0501 13.08 35.8926 13.4343L34.9683 15.5157C35.3565 16.1988 35.6875 16.9128 35.9574 17.6496C36.5873 17.5903 37.2251 17.5586 37.8701 17.5586C39.56 17.5586 41.2018 17.7679 42.7722 18.1597C42.3161 16.0564 41.5347 14.0464 40.4404 12.1672C40.1799 11.7198 40.3315 11.1458 40.7789 10.8854C41.2262 10.6249 41.8002 10.7763 42.0608 11.2238C43.4298 13.5751 44.3502 16.1146 44.8008 18.7803C52.567 21.6172 58.1261 29.079 58.1261 37.8151ZM17.9631 34.0647C18.2218 32.688 18.6202 31.36 19.1433 30.096C16.1994 28.7718 14.2847 25.8592 14.2847 22.5567C14.2847 17.9943 17.9963 14.2828 22.5586 14.2828C25.8478 14.2828 28.7557 16.1871 30.0861 19.1151C31.3487 18.5876 32.6757 18.185 34.0517 17.9214C33.7926 17.2798 33.4807 16.6594 33.1169 16.0688C32.9547 15.8055 32.9328 15.4792 33.0583 15.1967L33.9177 13.2618L31.8534 11.1977L29.9178 12.0574C29.6353 12.1828 29.309 12.1611 29.0457 11.9988C27.926 11.3092 26.7116 10.8058 25.4363 10.5023C25.1356 10.4308 24.8894 10.2157 24.7784 9.92714L24.0184 7.9523H21.0991L20.3389 9.92714C20.2278 10.2157 19.9817 10.4308 19.681 10.5023C18.4057 10.8058 17.1914 11.3092 16.0717 11.9988C15.8084 12.1611 15.482 12.1828 15.1995 12.0574L13.264 11.1977L11.1996 13.2618L12.059 15.1972C12.1845 15.4797 12.1626 15.806 12.0006 16.0693C11.311 17.1889 10.8075 18.4034 10.504 19.679C10.4324 19.9797 10.2172 20.2259 9.92868 20.3369L7.95407 21.097V24.0161L9.92822 24.776C10.2167 24.8869 10.4319 25.1332 10.5035 25.4337C10.8072 26.7101 11.3108 27.9249 12.0002 29.0443C12.1623 29.3076 12.1842 29.6339 12.0587 29.9164L11.1993 31.8513L13.2636 33.9154L15.1992 33.0557C15.4816 32.9302 15.8079 32.952 16.0712 33.1142C16.6742 33.4856 17.3077 33.8027 17.9631 34.0647ZM28.3916 19.918C27.3677 17.6403 25.1116 16.1576 22.5586 16.1576C19.0303 16.1576 16.1597 19.0282 16.1597 22.5566C16.1597 25.1198 17.6503 27.3794 19.94 28.3985C21.8404 24.7947 24.7951 21.8303 28.3916 19.918ZM56.2511 37.8151C56.2511 27.6796 48.0054 19.4339 37.8698 19.4339C27.7343 19.4339 19.4885 27.6795 19.4885 37.8151C19.4885 47.9506 27.7343 56.1964 37.8698 56.1964C48.0054 56.1964 56.2511 47.9506 56.2511 37.8151ZM47.3543 31.5937V43.6482C47.3543 45.7616 46.6768 47.0709 46.079 48.2261C45.5464 49.2554 45.0865 50.1444 45.0865 51.5737V52.3764C45.0865 52.8942 44.6667 53.3139 44.149 53.3139H35.7445C35.2268 53.3139 34.807 52.8942 34.807 52.3764V51.5737C34.807 49.2526 32.3448 46.2676 29.9636 43.3808C28.5704 41.6916 27.1297 39.945 26.1533 38.2864C25.8907 37.8401 26.0394 37.2656 26.4855 37.003C28.3297 35.917 31.0295 35.5039 32.5681 37.9133C33.0678 38.6957 33.4072 39.0873 33.6098 39.2805C33.7867 38.7723 34.0358 37.4235 34.0358 33.8629V26.2955C34.0358 24.9898 35.098 23.9276 36.4037 23.9276C36.6084 23.9276 36.8069 23.9538 36.9965 24.0028C37.2897 23.0281 38.1956 22.3161 39.2646 22.3161C40.4617 22.3161 41.454 23.2088 41.6108 24.3636C41.7765 24.3268 41.9488 24.3073 42.1254 24.3073C43.4311 24.3073 44.4934 25.3695 44.4934 26.6752V29.2775C44.6524 29.2437 44.8173 29.2259 44.9863 29.2259C46.292 29.2258 47.3543 30.288 47.3543 31.5937ZM45.4793 31.5937C45.4793 31.3265 45.2536 31.1008 44.9863 31.1008C44.7191 31.1008 44.4934 31.3265 44.4934 31.5937V37.7715C44.4934 38.2892 44.0736 38.709 43.5559 38.709C43.0381 38.709 42.6184 38.2892 42.6184 37.7715V26.6751C42.6184 26.4079 42.3927 26.1822 42.1254 26.1822C41.8582 26.1822 41.6325 26.4079 41.6325 26.6751V36.3691C41.6325 36.8868 41.2127 37.3066 40.695 37.3066C40.1772 37.3066 39.7575 36.8868 39.7575 36.3691V24.684C39.7575 24.4168 39.5318 24.1911 39.2646 24.1911C38.9974 24.1911 38.7717 24.4168 38.7717 24.684V35.6132C38.7717 36.131 38.3519 36.5507 37.8342 36.5507C37.3165 36.5507 36.8967 36.131 36.8967 35.6132V26.2955C36.8967 26.0284 36.671 25.8026 36.4037 25.8026C36.1365 25.8026 35.9108 26.0284 35.9108 26.2955V33.8629C35.9108 39.0147 35.4677 40.8828 34.1551 41.2662C32.9148 41.6282 31.858 40.2848 30.9881 38.9225C30.2808 37.8151 29.1699 37.9038 28.319 38.2037C29.1865 39.4918 30.3136 40.8582 31.4102 42.1878C33.9631 45.2828 36.6016 48.4819 36.6802 51.4389H43.2126C43.2422 49.629 43.8638 48.4274 44.4138 47.3644C44.9618 46.3054 45.4793 45.3051 45.4793 43.6481V31.5937Z" fill="white"/>
</svg>
