<svg width="60" height="60" viewBox="0 0 60 60" fill="none" xmlns="http://www.w3.org/2000/svg">
<path d="M34.6765 46.3306L34.6481 46.3365C34.0145 46.4674 33.6067 47.0872 33.7376 47.7212C33.852 48.2751 34.34 48.6565 34.8843 48.6565C34.9626 48.6565 35.0427 48.6482 35.1223 48.6317L35.1361 48.629C35.7705 48.5022 36.182 47.8847 36.0552 47.2502C35.9284 46.6153 35.3114 46.2038 34.6765 46.3306Z" fill="white"/>
<path d="M56.9531 36.0449C58.6331 36.0449 60 34.678 60 32.998V27.0801C60 25.4001 58.6331 24.0332 56.9531 24.0332C55.2731 24.0332 53.9062 25.4001 53.9062 27.0801V29.9512H52.5V25.791C52.5 23.5297 50.6602 21.6895 48.3984 21.6895C46.1371 21.6895 44.2969 23.5297 44.2969 25.791V37.627H42.8906V35.9282C42.8906 34.2482 41.5237 32.8813 39.8438 32.8813C38.1638 32.8813 36.7969 34.2482 36.7969 35.9282V40.6738C36.7969 42.3538 38.1638 43.7207 39.8438 43.7207H44.2969V44.8335C42.1989 45.0652 40.1477 45.349 38.1491 45.6845C37.5105 45.7916 37.0798 46.3959 37.1869 47.034C37.2945 47.6726 37.8987 48.1029 38.5368 47.9958C40.8179 47.6131 43.1703 47.2995 45.5836 47.0541C45.5869 47.0541 45.5896 47.0537 45.5928 47.0532C49.4678 46.66 53.5007 46.4444 57.6562 46.4105V53.4372H19.7983C23.123 51.8991 26.6249 50.6723 30.2582 49.7742C30.7896 49.6538 31.176 49.1676 31.1719 48.6224C31.1682 48.0919 30.7951 47.6204 30.2806 47.4927C25.9465 46.33 21.27 45.4602 16.2891 44.8875V44.8761H20.7422C22.4222 44.8761 23.7891 43.5092 23.7891 41.8292V38.255C23.7891 36.575 22.4222 35.2081 20.7422 35.2081C19.0622 35.2081 17.6953 36.575 17.6953 38.255V38.7823H16.2891V29.8761C16.2891 27.9375 14.7116 26.3605 12.7734 26.3605C10.8348 26.3605 9.25781 27.9375 9.25781 29.8761V35.0323H7.85156V33.3331C7.85156 31.6531 6.48468 30.2863 4.80469 30.2863C3.12469 30.2863 1.75781 31.6531 1.75781 33.3331V38.0792C1.75781 39.7592 3.12469 41.1261 4.80469 41.1261H9.25781V44.2874C6.633 44.1373 3.93631 44.0617 1.17188 44.0617C0.524597 44.0617 0 44.5863 0 45.2336V54.6086C0 55.2559 0.524597 55.7805 1.17188 55.7805H14.9496C14.957 55.7809 14.9638 55.7809 14.9712 55.7809C14.9785 55.7809 14.9854 55.7809 14.9927 55.7805H58.8281C59.4754 55.7805 60 55.2559 60 54.6086V45.2336C60 44.5863 59.4754 44.0617 58.8281 44.0617C56.6872 44.0617 54.5769 44.1098 52.5 44.2032V36.0449H56.9531ZM18.8672 41.1261C19.5145 41.1261 20.0391 40.6015 20.0391 39.9542V38.2555C20.0391 37.8677 20.3545 37.5523 20.7422 37.5523C21.1299 37.5523 21.4453 37.8673 21.4453 38.2555V41.8292C21.4453 42.2169 21.1299 42.5323 20.7422 42.5323H16.2891V41.1261H18.8672ZM4.80469 38.7823C4.41696 38.7823 4.10156 38.4669 4.10156 38.0792V33.3336C4.10156 32.9454 4.41696 32.6305 4.80469 32.6305C5.19241 32.6305 5.50781 32.9454 5.50781 33.3336V36.2042C5.50781 36.8515 6.03241 37.3761 6.67969 37.3761H9.25781V38.7823H4.80469ZM11.6016 29.8761C11.6016 29.2302 12.1271 28.7042 12.7734 28.7042C13.4198 28.7042 13.9453 29.2302 13.9453 29.8761V44.6413C13.1712 44.568 12.3894 44.5021 11.6016 44.4426V29.8761ZM14.6608 53.4372H2.34375V46.4101C10.7332 46.476 18.4602 47.2546 25.3922 48.7296C21.6362 49.9536 18.0418 51.5297 14.6608 53.4372ZM55.0781 32.2949C55.7254 32.2949 56.25 31.7703 56.25 31.123V27.0801C56.25 26.6924 56.5654 26.377 56.9531 26.377C57.3409 26.377 57.6562 26.6924 57.6562 27.0801V32.998C57.6562 33.3862 57.3409 33.7012 56.9531 33.7012H52.5V32.2949H55.0781ZM39.8438 41.377C39.456 41.377 39.1406 41.0616 39.1406 40.6738V35.9282C39.1406 35.5405 39.456 35.2251 39.8438 35.2251C40.2315 35.2251 40.5469 35.5405 40.5469 35.9282V38.7988C40.5469 39.4461 41.0715 39.9707 41.7188 39.9707H44.2969V41.377H39.8438ZM46.6406 44.5987V25.791C46.6406 24.8219 47.4294 24.0332 48.3984 24.0332C49.3675 24.0332 50.1562 24.8219 50.1562 25.791V44.33C48.972 44.4041 47.7997 44.4934 46.6406 44.5987Z" fill="white"/>
<path d="M22.0583 17.2357C21.8459 17.9759 21.7383 18.7418 21.7383 19.5117C21.7383 24.0674 25.4443 27.7734 30 27.7734C34.5557 27.7734 38.2617 24.0674 38.2617 19.5117C38.2617 14.9565 34.5557 11.25 30 11.25C29.3527 11.25 28.8281 11.7751 28.8281 12.4219C28.8281 13.0692 29.3527 13.5938 30 13.5938C33.2629 13.5938 35.918 16.2488 35.918 19.5117C35.918 22.7751 33.2629 25.4297 30 25.4297C26.7366 25.4297 24.082 22.7751 24.082 19.5117C24.082 18.9601 24.1589 18.4117 24.3109 17.8816C24.4894 17.2595 24.1296 16.6104 23.5075 16.4323C22.8854 16.2534 22.2363 16.6136 22.0583 17.2357Z" fill="white"/>
<path d="M30 8.90625C30.6473 8.90625 31.1719 8.38165 31.1719 7.73438V5.39062C31.1719 4.74335 30.6473 4.21875 30 4.21875C29.3527 4.21875 28.8281 4.74335 28.8281 5.39062V7.73438C28.8281 8.38165 29.3527 8.90625 30 8.90625Z" fill="white"/>
<path d="M21.0865 12.2557C21.3154 12.4846 21.6153 12.599 21.9151 12.599C22.2154 12.599 22.5152 12.4846 22.7441 12.2557C23.2014 11.7984 23.2014 11.0564 22.7441 10.5986L21.3951 9.24957C20.9373 8.79181 20.1953 8.79181 19.7375 9.24957C19.2802 9.70734 19.2802 10.4494 19.7375 10.9071L21.0865 12.2557Z" fill="white"/>
<path d="M21.0864 26.7678L19.7379 28.1168C19.2801 28.5746 19.2801 29.3166 19.7379 29.7739C19.9667 30.0028 20.2666 30.1172 20.5664 30.1172C20.8662 30.1172 21.1661 30.0028 21.395 29.7739L22.744 28.4253C23.2013 27.9676 23.2013 27.2255 22.744 26.7678C22.2862 26.3105 21.5442 26.3105 21.0864 26.7678Z" fill="white"/>
<path d="M38.9136 26.768C38.4558 26.3102 37.7138 26.3106 37.256 26.768C36.7987 27.2257 36.7982 27.9678 37.256 28.4255L38.605 29.7741C38.8339 30.003 39.1337 30.1174 39.4336 30.1174C39.7334 30.1174 40.0337 30.003 40.2621 29.7741C40.7199 29.3168 40.7199 28.5747 40.2621 28.117L38.9136 26.768Z" fill="white"/>
<path d="M38.0849 12.599C38.3848 12.599 38.6846 12.4846 38.9135 12.2557L40.2621 10.9067C40.7198 10.4494 40.7198 9.70734 40.2621 9.24957C39.8047 8.79181 39.0627 8.79181 38.6049 9.24957L37.2559 10.5981C36.7982 11.0559 36.7982 11.7979 37.2559 12.2557C37.4848 12.4846 37.7846 12.599 38.0849 12.599Z" fill="white"/>
<path d="M15.8789 20.6836H18.2227C18.8699 20.6836 19.3945 20.159 19.3945 19.5117C19.3945 18.8644 18.8699 18.3398 18.2227 18.3398H15.8789C15.2316 18.3398 14.707 18.8644 14.707 19.5117C14.707 20.159 15.2316 20.6836 15.8789 20.6836Z" fill="white"/>
<path d="M28.8281 31.2891V33.6328C28.8281 34.2801 29.3527 34.8047 30 34.8047C30.6473 34.8047 31.1719 34.2801 31.1719 33.6328V31.2891C31.1719 30.6422 30.6473 30.1172 30 30.1172C29.3527 30.1172 28.8281 30.6422 28.8281 31.2891Z" fill="white"/>
<path d="M41.7773 20.6836H44.1211C44.7684 20.6836 45.293 20.159 45.293 19.5117C45.293 18.8644 44.7684 18.3398 44.1211 18.3398H41.7773C41.1301 18.3398 40.6055 18.8644 40.6055 19.5117C40.6055 20.159 41.1301 20.6836 41.7773 20.6836Z" fill="white"/>
<path d="M24.9014 15.7572C25.209 15.7572 25.5157 15.6368 25.7455 15.3984L25.7858 15.3572C26.2403 14.8962 26.2353 14.1541 25.7748 13.6996C25.3138 13.2455 24.5718 13.2505 24.1172 13.711L24.0577 13.7719C23.6086 14.2384 23.6224 14.98 24.0888 15.429C24.3159 15.6483 24.6088 15.7572 24.9014 15.7572Z" fill="white"/>
</svg>
