<svg width="100" height="100" viewBox="0 0 100 100" fill="none" xmlns="http://www.w3.org/2000/svg">
<circle cx="50" cy="50" r="50" fill="white"/>
<path d="M69.0755 40.8125C68.9553 40.1216 68.945 39.416 69.0449 38.7218C69.1373 37.5695 69.2429 36.2636 68.614 35.1797C67.9774 34.0728 66.7825 33.5095 65.7276 33.0124C65.0881 32.7588 64.4924 32.4063 63.9623 31.9679C63.522 31.4372 63.1684 30.8403 62.9145 30.1993C62.4173 29.1444 61.8541 27.9489 60.7505 27.3145C59.6633 26.6829 58.3573 26.7884 57.2051 26.882C56.5117 26.9821 55.8068 26.9719 55.1166 26.8519C54.4854 26.6171 53.895 26.2849 53.3666 25.8675C52.4008 25.1937 51.3048 24.4336 50 24.4336C48.6952 24.4336 47.5998 25.1938 46.6329 25.8648C46.1052 26.2817 45.5157 26.6138 44.8856 26.8491C44.1947 26.9697 43.4891 26.98 42.7949 26.8798C41.6438 26.7868 40.3373 26.6807 39.2523 27.3102C38.1465 27.9467 37.5827 29.1422 37.0861 30.1971C36.8323 30.8365 36.4799 31.4322 36.0416 31.9624C35.5106 32.4025 34.9135 32.7561 34.2724 33.0102C33.218 33.5073 32.0226 34.0706 31.3882 35.1742C30.7577 36.2614 30.8627 37.5673 30.9556 38.7196C31.0553 39.4131 31.045 40.1179 30.925 40.8081C30.6903 41.4393 30.3582 42.0298 29.9406 42.5581C29.2685 43.525 28.5078 44.6204 28.5078 45.9252C28.5078 47.2301 29.2696 48.3282 29.9423 49.2956C30.358 49.8203 30.6892 50.4067 30.9239 51.0336C31.0451 51.7264 31.0558 52.4341 30.9556 53.1303C30.8627 54.2826 30.7577 55.5885 31.386 56.673C32.0226 57.7793 33.218 58.3431 34.2724 58.8397C34.9128 59.0935 35.5093 59.4465 36.0399 59.8859C36.0989 59.9477 36.1548 60.0125 36.2073 60.08L31.6545 69.8406C31.5877 69.9838 31.5574 70.1414 31.5662 70.2992C31.5751 70.4569 31.6229 70.6101 31.7054 70.7449C31.7879 70.8797 31.9025 70.992 32.039 71.0717C32.1754 71.1514 32.3295 71.1961 32.4874 71.2018L37.6827 71.3894L41.1625 75.2503C41.2684 75.3676 41.4017 75.4568 41.5505 75.51C41.6993 75.5633 41.8589 75.5789 42.0152 75.5554C42.1714 75.532 42.3195 75.4702 42.4461 75.3757C42.5727 75.2811 42.6739 75.1567 42.7408 75.0135L46.8702 66.1509C47.7802 66.7759 48.8029 67.418 50 67.418C51.1971 67.418 52.2203 66.7759 53.1298 66.1509L57.2598 75.0135C57.3264 75.1568 57.4276 75.2813 57.5541 75.376C57.6807 75.4706 57.8287 75.5324 57.985 75.5559C58.1413 75.5793 58.3009 75.5637 58.4497 75.5104C58.5985 75.4571 58.7317 75.3677 58.8375 75.2503L62.3178 71.3894L67.518 71.2018C67.676 71.196 67.8301 71.1513 67.9665 71.0715C68.103 70.9917 68.2175 70.8793 68.3 70.7445C68.3825 70.6097 68.4303 70.4565 68.4392 70.2987C68.4481 70.1409 68.4178 69.9833 68.3509 69.8401L63.7949 60.0778C63.8462 60.0115 63.901 59.948 63.959 59.8875C64.4898 59.4475 65.0867 59.0939 65.7276 58.8397C66.782 58.3431 67.9774 57.7798 68.6134 56.6735C69.2429 55.5863 69.1373 54.2815 69.0449 53.1303C68.945 52.436 68.9552 51.7302 69.075 51.0391C69.3105 50.411 69.6426 49.8235 70.0594 49.2978C70.732 48.3304 71.4933 47.2345 71.4933 45.9274C71.4933 44.6204 70.7326 43.5272 70.0621 42.5603C69.6443 42.0326 69.3114 41.4429 69.0755 40.8125ZM41.6164 72.8944L38.8328 69.8067C38.747 69.7115 38.643 69.6345 38.5269 69.5803C38.4108 69.5261 38.2849 69.4958 38.1569 69.4912L34.0006 69.3408L37.3398 62.1795C37.7271 63.1383 38.3921 63.9595 39.2495 64.5376C40.3367 65.1681 41.6421 65.062 42.7949 64.9702C43.4899 64.8706 44.1962 64.8813 44.8878 65.0019C45.0066 65.0352 45.1226 65.078 45.2345 65.1298L41.6164 72.8944ZM66.007 69.3397L61.8453 69.4901C61.7172 69.4947 61.5913 69.5251 61.4751 69.5793C61.3589 69.6335 61.2547 69.7104 61.1688 69.8056L58.3852 72.8933L54.7671 65.1277C54.8801 65.0757 54.9969 65.0325 55.1166 64.9986C55.8073 64.8784 56.5127 64.868 57.2067 64.968C58.3552 65.0609 59.6633 65.1665 60.7488 64.5376C61.6093 63.9598 62.2762 63.1367 62.6629 62.1751L66.007 69.3397ZM68.4844 48.2035C67.9351 48.9054 67.5098 49.6958 67.2266 50.5409C67.0414 51.4436 67.0113 52.3712 67.1374 53.284C67.2145 54.2416 67.2878 55.1461 66.957 55.7159V55.7192C66.6206 56.3044 65.7916 56.6948 64.9144 57.1083C64.0708 57.4475 63.2914 57.9284 62.6098 58.5302C62.3288 58.8183 62.0825 59.1384 61.8759 59.4839V59.4872C61.6246 59.9219 61.3955 60.3691 61.1896 60.827C60.7762 61.708 60.3852 62.5404 59.7951 62.8795C59.2252 63.2076 58.3185 63.1365 57.3637 63.0594C56.4538 62.9338 55.5291 62.9639 54.6293 63.1485C54.0523 63.3214 53.5053 63.5822 53.0078 63.9218C52.7672 64.0766 52.5266 64.2434 52.2843 64.4107C51.4738 64.9729 50.7082 65.5045 50.0027 65.5045C49.2973 65.5045 48.5322 64.9734 47.7212 64.4107C47.4795 64.2434 47.2388 64.0766 46.9977 63.9223C46.5022 63.5839 45.9575 63.324 45.3827 63.1518C44.9269 63.0364 44.4579 62.9812 43.9877 62.9877C43.5387 62.9877 43.0875 63.0238 42.6434 63.0594C41.6864 63.1365 40.7841 63.2098 40.2115 62.8789C39.6236 62.5382 39.2326 61.7086 38.8191 60.8303C38.6125 60.3711 38.3821 59.923 38.129 59.4877C37.9231 59.1401 37.6756 58.8189 37.3918 58.5312C36.7107 57.9296 35.9319 57.4488 35.0889 57.1094C34.2112 56.6959 33.3827 56.3055 33.0436 55.717C32.7155 55.1472 32.7866 54.2405 32.8631 53.2851C32.9897 52.3712 32.9592 51.4423 32.7729 50.5387C32.4893 49.6948 32.0639 48.9055 31.5151 48.2046C30.9534 47.3963 30.4213 46.6334 30.4213 45.9263C30.4213 45.2192 30.9507 44.458 31.5118 43.6502C32.0628 42.9459 32.4895 42.1527 32.7734 41.3047C32.9593 40.4036 32.9897 39.4773 32.8631 38.5659C32.7866 37.6089 32.7133 36.7066 33.0458 36.1318C33.3827 35.5461 34.2112 35.1556 35.0889 34.7422C35.9333 34.4022 36.7131 33.92 37.3945 33.3165C37.9966 32.6355 38.4775 31.8564 38.8164 31.013C39.2298 30.138 39.6209 29.3068 40.2087 28.9683C40.7791 28.6374 41.6853 28.7107 42.6396 28.7884C43.5517 28.9147 44.4787 28.8842 45.3805 28.6981C46.2275 28.4142 47.0197 27.9875 47.7228 27.4365C48.5316 26.8765 49.2945 26.3477 50 26.3477C50.7055 26.3477 51.4689 26.8765 52.2761 27.437C52.9798 27.9885 53.7728 28.4154 54.6205 28.6992C55.5216 28.8854 56.448 28.9157 57.3593 28.7889C58.3169 28.7113 59.2187 28.6385 59.7934 28.971C60.3786 29.3073 60.7696 30.1364 61.183 31.0136C61.5228 31.8584 62.005 32.6387 62.6087 33.3203C63.2897 33.9221 64.0686 34.4029 64.9116 34.7422C65.7866 35.1556 66.6179 35.5461 66.9564 36.1351C67.2873 36.7049 67.214 37.6116 67.1369 38.5659C67.0106 39.4781 67.0411 40.405 67.2271 41.3069C67.5111 42.1535 67.9376 42.9455 68.4882 43.6486C69.0487 44.4563 69.5781 45.2192 69.5781 45.9247C69.5781 46.6302 69.0477 47.3952 68.4844 48.2035Z" fill="#C66739"/>
<path d="M50 32.4502C47.3348 32.4501 44.7293 33.2403 42.5132 34.721C40.2971 36.2017 38.5698 38.3063 37.5498 40.7686C36.5298 43.231 36.2629 45.9405 36.7828 48.5546C37.3028 51.1686 38.5862 53.5698 40.4708 55.4544C42.3554 57.339 44.7566 58.6224 47.3707 59.1424C49.9847 59.6623 52.6942 59.3954 55.1566 58.3754C57.619 57.3554 59.7235 55.6281 61.2042 53.412C62.6849 51.1959 63.4751 48.5905 63.475 45.9252C63.4708 42.3527 62.0498 38.9277 59.5237 36.4016C56.9975 33.8754 53.5725 32.4544 50 32.4502ZM50 57.4867C47.7134 57.4868 45.478 56.8088 43.5767 55.5385C41.6753 54.2682 40.1934 52.4625 39.3182 50.35C38.4431 48.2374 38.214 45.9127 38.6601 43.67C39.1061 41.4273 40.2072 39.3671 41.8241 37.7502C43.441 36.1332 45.501 35.032 47.7437 34.5859C49.9865 34.1398 52.3111 34.3687 54.4237 35.2437C56.5364 36.1188 58.342 37.6006 59.6125 39.5019C60.8829 41.4032 61.561 43.6385 61.561 45.9252C61.5575 48.9903 60.3384 51.9289 58.171 54.0964C56.0037 56.2638 53.0652 57.4831 50 57.4867Z" fill="#C66739"/>
<path d="M55.1822 42.3552L48.7745 48.7624L44.4449 44.4328C44.3558 44.344 44.2502 44.2736 44.1339 44.2256C44.0176 44.1776 43.893 44.1529 43.7672 44.1531C43.6415 44.1533 43.5169 44.1782 43.4008 44.2265C43.2846 44.2747 43.1791 44.3454 43.0903 44.4345C43.0014 44.5235 42.931 44.6292 42.883 44.7455C42.835 44.8617 42.8104 44.9863 42.8105 45.1121C42.8107 45.2379 42.8356 45.3624 42.8839 45.4786C42.9322 45.5947 43.0029 45.7002 43.0919 45.7891L48.098 50.7952C48.2776 50.9744 48.521 51.0751 48.7748 51.0751C49.0285 51.0751 49.2719 50.9744 49.4515 50.7952L56.5357 43.711C56.6271 43.6226 56.7 43.517 56.7502 43.4003C56.8003 43.2835 56.8267 43.1579 56.8277 43.0308C56.8288 42.9038 56.8046 42.7777 56.7564 42.6601C56.7083 42.5425 56.6372 42.4357 56.5473 42.3458C56.4575 42.256 56.3506 42.185 56.233 42.1369C56.1153 42.0888 55.9893 42.0646 55.8622 42.0657C55.7352 42.0668 55.6096 42.0933 55.4928 42.1434C55.3761 42.1936 55.2705 42.2666 55.1822 42.358V42.3552Z" fill="#C66739"/>
</svg>
