<svg width="39" height="42" viewBox="0 0 39 42" fill="none" xmlns="http://www.w3.org/2000/svg">
<path fill-rule="evenodd" clip-rule="evenodd" d="M36.3513 24.0662H32.3696C32.1127 24.0662 31.8792 24.1723 31.7094 24.3427C31.5395 24.5132 31.4339 24.7476 31.4339 25.0054C31.4339 25.2632 31.5395 25.4977 31.7094 25.6681C31.8792 25.8386 32.1127 25.9446 32.3696 25.9446H36.3513C36.6081 25.9446 36.8417 25.8386 37.0115 25.6681C37.1813 25.4977 37.2869 25.2632 37.2869 25.0054C37.2869 24.7476 37.1813 24.5132 37.0115 24.3427C36.8417 24.1723 36.6076 24.0662 36.3513 24.0662ZM32.8697 33.0541H32.8655H32.4784C32.3221 33.0541 32.176 33.1312 32.0667 33.2554C31.9415 33.3974 31.8638 33.5996 31.8638 33.827C31.8638 33.9905 31.9034 34.1451 31.9825 34.2628C32.0457 34.3567 32.1388 34.4309 32.2621 34.4687C32.8879 34.6621 33.6393 34.7574 34.3958 34.7648C35.1942 34.7728 35.9926 34.6831 36.6528 34.5084C36.8607 34.4533 37.0222 34.3515 37.1306 34.225C37.2315 34.1073 37.2855 33.9667 37.2855 33.827C37.2855 33.5996 37.2078 33.3979 37.0827 33.2554C36.9733 33.1312 36.8272 33.0541 36.6709 33.0541H32.8697ZM20.1435 23.6277H18.5523C18.3266 23.6277 18.1284 23.6889 17.9912 23.7874C17.9079 23.8477 17.8558 23.9131 17.8558 23.9696V33.2162C17.8558 33.2727 17.9074 33.3385 17.9912 33.3983C18.0549 33.4441 18.1317 33.4819 18.2182 33.509L18.2243 33.5109C18.3229 33.5412 18.4336 33.558 18.5523 33.558H20.1435C20.3691 33.558 20.5673 33.4969 20.7046 33.3983C20.7878 33.3381 20.8399 33.2727 20.8399 33.2162V23.9696C20.8399 23.9131 20.7883 23.8472 20.7046 23.7874C20.5673 23.6889 20.3696 23.6277 20.1435 23.6277ZM36.6858 30.0582H32.8697C32.5217 30.0582 32.21 30.1759 31.9881 30.365C31.7917 30.5322 31.6698 30.7564 31.6698 30.9973C31.6698 31.2383 31.7917 31.462 31.9876 31.6292C32.2091 31.8179 32.5194 31.9351 32.8655 31.9361H36.6821H36.6858C37.0338 31.9361 37.3455 31.8184 37.5675 31.6292C37.7638 31.462 37.8857 31.2374 37.8857 30.9969C37.8857 30.7564 37.7638 30.5322 37.5675 30.3645C37.3455 30.1754 37.0333 30.0582 36.6858 30.0582ZM33.2345 28.9401H36.6858C37.0338 28.9401 37.3455 28.8224 37.5675 28.6333C37.7638 28.4661 37.8857 28.2419 37.8857 28.0009C37.8857 27.7599 37.7638 27.5362 37.5675 27.3686C37.3455 27.1794 37.0338 27.0617 36.6858 27.0617C36.6467 27.0617 36.6081 27.0575 36.5713 27.0501C36.4992 27.058 36.4257 27.0617 36.3513 27.0617H32.8697C32.5217 27.0617 32.21 27.1794 31.9881 27.3686C31.7917 27.5358 31.6698 27.7599 31.6698 28.0009C31.6698 28.2419 31.7917 28.4656 31.9876 28.6328C32.21 28.8224 32.5217 28.9396 32.8697 28.9396L33.2345 28.9401ZM18.7998 34.6761H20.1435C20.6069 34.6761 21.0354 34.5346 21.3527 34.3067C21.6286 34.1082 21.8268 33.8443 21.91 33.5408C22.0022 33.5641 22.0962 33.5823 22.1915 33.5959C22.6424 33.6589 23.1058 33.6183 23.5687 33.5777C23.9553 33.5436 24.3415 33.5099 24.6518 33.5454C24.7909 33.5613 24.9263 33.5935 25.0594 33.6365L26.2449 38.0765L22.7922 35.4331C22.7503 35.3972 22.7024 35.3668 22.6489 35.3435C22.3665 35.2216 22.0394 35.3528 21.918 35.6358L20.1532 39.7443L18.8002 34.6756L18.7998 34.6761ZM30.8547 15.0606C30.8724 15.0564 30.8896 15.0545 30.9068 15.0555C31.1697 15.0671 31.3981 15.2885 31.5847 15.5897C31.9304 16.1474 32.1081 16.9231 32.1542 17.4149C32.2691 18.6432 32.0192 19.2423 31.6833 20.0484C31.5465 20.3763 31.3967 20.7354 31.2469 21.1805C31.2441 21.1894 31.2455 21.1842 31.2399 21.1982C31.1641 21.4061 30.8798 22.1818 31.105 23.3891C31.0408 23.44 30.9798 23.4941 30.9221 23.552C30.5509 23.9247 30.3206 24.4389 30.3206 25.0054C30.3206 25.1469 30.335 25.2856 30.3624 25.4192C29.4389 26.6484 28.6214 27.5657 27.8175 27.9318C27.0749 28.2699 26.2774 28.0957 25.293 27.1766C25.0682 26.9669 24.717 26.9795 24.5076 27.2051C24.2982 27.4307 24.3113 27.7833 24.536 27.9934C25.9104 29.2764 27.0991 29.4847 28.2743 28.9494C29.1858 28.5347 30.0363 27.6544 30.9477 26.484C31.0064 26.541 31.0687 26.5947 31.1338 26.6442C30.7737 27.0071 30.556 27.4811 30.556 28.0019C30.556 28.5856 30.8296 29.1101 31.2697 29.4856L31.2869 29.5001L31.2702 29.5145C30.8296 29.89 30.556 30.415 30.556 30.9983C30.556 31.5816 30.8296 32.1061 31.2692 32.4816C31.2581 32.4937 31.2469 32.5058 31.2357 32.5184C30.9361 32.8589 30.7505 33.3227 30.7505 33.828C30.7505 33.8485 30.7505 33.8691 30.7514 33.8901L30.6025 33.8934C30.234 33.9013 29.88 33.9088 29.7478 33.9041C28.9843 33.8794 28.4283 33.8098 27.9877 33.7075C27.5648 33.6094 27.2503 33.481 26.9567 33.3339C26.8409 33.2755 26.6771 33.1854 26.5143 33.0962C25.9811 32.8029 25.4628 32.517 24.7774 32.4381C24.3499 32.3886 23.9111 32.4274 23.4724 32.4657C23.0667 32.5012 22.6605 32.5371 22.3432 32.4928C22.219 32.4755 22.1055 32.447 22.0031 32.4073C21.9864 32.4008 21.9696 32.3938 21.9529 32.3867V25.0633C23.8725 25.0554 24.0749 24.9218 24.8966 22.8959C25.0189 22.5942 25.1715 22.2878 25.3581 21.9955C25.5237 21.7358 25.7154 21.4873 25.9346 21.2632C26.3137 20.8755 26.7948 20.5388 27.2377 20.2292C27.3745 20.1334 27.5081 20.04 27.6202 19.9588C27.9212 19.7411 28.1887 19.5296 28.4386 19.2708C28.6973 19.0028 28.9308 18.6927 29.1514 18.2891C29.2812 18.0519 29.418 17.7152 29.5738 17.3317C29.8962 16.5383 30.3178 15.5015 30.6802 15.1666C30.6993 15.1596 30.7184 15.1512 30.7374 15.1414C30.7807 15.1195 30.8198 15.0928 30.8547 15.062V15.0606ZM13.621 30.6994C13.3004 30.5158 12.9854 30.3482 12.6979 30.2893C12.3601 30.2198 11.933 30.2758 11.5073 30.3318C10.8522 30.4178 10.2008 30.5028 9.57739 30.2384C8.94835 29.9713 8.55847 29.4403 8.16998 28.9112C8.02016 28.7071 7.87035 28.5034 7.71542 28.3334L5.11461 38.077L8.56731 35.4336C8.60918 35.3977 8.6571 35.3673 8.71061 35.3439C8.99302 35.2221 9.3201 35.3533 9.44153 35.6363L11.2063 39.7447L13.621 30.6994ZM16.7303 31.2369L16.7201 31.2411C16.3865 31.3826 16.0422 31.477 15.6793 31.477C15.3029 31.477 14.9577 31.3803 14.6283 31.2383L11.866 41.5857C11.7869 41.8837 11.4817 42.0607 11.1853 41.9808C11.0141 41.9351 10.8829 41.8136 10.8178 41.6619L8.70084 36.7338L4.49302 39.9553C4.24922 40.1422 3.90028 40.0955 3.71417 39.8507C3.60577 39.7078 3.57646 39.5294 3.6188 39.3683H3.61833L6.71464 27.7683C6.58762 27.7319 6.45595 27.6983 6.32475 27.6647C5.69525 27.5035 5.06622 27.3424 4.59259 26.867C4.11895 26.3916 3.95844 25.7601 3.79792 25.1283C3.69463 24.721 3.59088 24.3138 3.4085 24.0429C3.22612 23.7715 2.89159 23.524 2.55614 23.276C2.029 22.8861 1.5 22.4947 1.23387 21.8633C0.970533 21.2379 1.05521 20.5841 1.14082 19.9265C1.19618 19.4997 1.25202 19.0705 1.18316 18.7314C1.11523 18.398 0.902605 18.0276 0.68812 17.654C0.346154 17.0581 0 16.4551 0 15.7387C0 15.0223 0.346154 14.4194 0.68812 13.8235C0.902605 13.4498 1.11523 13.0795 1.18316 12.746C1.25202 12.407 1.19665 11.9782 1.14082 11.5509C1.05521 10.8933 0.970533 10.2395 1.23387 9.6137C1.5 8.98228 2.029 8.59091 2.55614 8.20095C2.89159 7.95296 3.22565 7.70544 3.4085 7.4341C3.59088 7.16322 3.69417 6.75598 3.79792 6.34873C3.95844 5.71685 4.11895 5.08543 4.59259 4.61C5.06622 4.13457 5.69525 3.97344 6.32475 3.81232C6.73046 3.70864 7.13617 3.60449 7.40602 3.42142C7.67633 3.23835 7.92292 2.90256 8.16998 2.56583C8.55847 2.03669 8.94835 1.50569 9.57739 1.23855C10.2004 0.973746 10.8517 1.05921 11.5068 1.14514C11.9321 1.20072 12.3596 1.25676 12.6974 1.18764C13.0296 1.11946 13.3986 0.906027 13.7712 0.690729C14.3649 0.347466 14.9656 0 15.6793 0C16.393 0 16.9932 0.347466 17.5873 0.690729C17.9595 0.906027 18.3289 1.11946 18.6611 1.18764C18.9989 1.25723 19.4265 1.20119 19.8517 1.14514C20.5068 1.05921 21.1582 0.974213 21.7816 1.23855C22.4107 1.50569 22.8006 2.03669 23.189 2.56583C23.4361 2.90256 23.6827 3.23788 23.953 3.42142C24.2229 3.60449 24.6286 3.70817 25.0343 3.81232C25.6638 3.97344 26.2928 4.13457 26.7664 4.61C27.2401 5.08543 27.4006 5.71685 27.5611 6.34873C27.6644 6.75598 27.7681 7.16322 27.9505 7.4341C28.1329 7.70544 28.4674 7.95296 28.8029 8.20095C29.33 8.59091 29.859 8.98228 30.1252 9.6137C30.389 10.239 30.3038 10.8929 30.2182 11.5509C30.1628 11.9778 30.107 12.407 30.1759 12.746C30.2438 13.0795 30.4564 13.4498 30.6709 13.8239C30.6956 13.8669 30.7202 13.9099 30.7444 13.9524C30.8128 13.9425 30.8831 13.9393 30.9552 13.9421C31.6507 13.9724 32.1635 14.4096 32.5292 15.0004C32.9749 15.7191 33.2019 16.698 33.2596 17.3145C33.4006 18.8206 33.1065 19.5263 32.7101 20.4762C32.5799 20.7891 32.437 21.131 32.2998 21.5382C32.2914 21.5625 32.2886 21.5705 32.2844 21.5821C32.2351 21.7171 32.0625 22.1883 32.1621 22.9589C32.2305 22.9519 32.2998 22.9482 32.37 22.9482H36.3517C36.9156 22.9482 37.4283 23.1794 37.7996 23.552C38.1709 23.9247 38.4012 24.4389 38.4012 25.0054C38.4012 25.4874 38.2342 25.932 37.9555 26.2832C38.0737 26.3523 38.1844 26.4308 38.2858 26.5176C38.7264 26.8931 39 27.4181 39 28.0014C39 28.5847 38.7264 29.1096 38.2858 29.4851L38.2691 29.4996L38.2858 29.5141C38.7264 29.8896 39 30.4145 39 30.9978C39 31.5811 38.7264 32.1061 38.2858 32.4816C38.2072 32.5488 38.123 32.6109 38.0341 32.6674C38.2635 32.9887 38.4007 33.3927 38.4007 33.827C38.4007 34.2306 38.2509 34.6289 37.9713 34.954C37.7233 35.2431 37.3725 35.4714 36.9366 35.5868C36.1866 35.7848 35.2849 35.8866 34.3879 35.8782C33.5267 35.8698 32.6641 35.7591 31.9364 35.5345C31.6028 35.4313 31.339 35.2403 31.1445 34.9955C30.984 34.9983 30.8026 35.0021 30.6244 35.0058C30.2382 35.0138 29.8674 35.0217 29.7129 35.0166C28.8657 34.989 28.2413 34.9101 27.7398 34.7938C27.2201 34.6733 26.8288 34.5131 26.4608 34.3282C26.4342 34.3151 26.4091 34.302 26.3845 34.2894L27.7402 39.3683C27.783 39.5294 27.7533 39.7083 27.6444 39.8507C27.4583 40.0955 27.1093 40.1426 26.8655 39.9553L22.6577 36.7338L20.5408 41.6619C20.4756 41.8132 20.3444 41.9346 20.1732 41.9808C19.8764 42.0602 19.5716 41.8837 19.4926 41.5857L17.5892 34.4547C17.5017 34.4108 17.4194 34.3613 17.3431 34.3067C16.9722 34.04 16.7424 33.6552 16.7424 33.2162V31.2822L16.7303 31.2369ZM20.7348 22.5895C20.5492 22.5381 20.3496 22.5101 20.1435 22.5101H18.5523C18.0889 22.5101 17.6604 22.6516 17.3431 22.8795C16.9722 23.1462 16.7424 23.531 16.7424 23.97V24.1979C16.6442 24.2101 16.5456 24.2208 16.4465 24.2297C16.2106 24.2507 15.9547 24.2615 15.6797 24.2615C13.3348 24.2615 11.2123 23.3073 9.67556 21.7652C8.13927 20.2231 7.18874 18.0921 7.18874 15.7383C7.18874 13.3845 8.13927 11.2539 9.67556 9.71131C11.2118 8.16919 13.3348 7.21506 15.6797 7.21506C18.0247 7.21506 20.1472 8.16919 21.6839 9.71131C23.2202 11.2534 24.1707 13.3845 24.1707 15.7383C24.1707 17.1688 23.8218 18.5147 23.2053 19.694C22.6089 20.8354 21.7607 21.8255 20.7348 22.5895ZM16.7424 25.3193V29.9886C16.5898 30.0736 16.4377 30.1525 16.2892 30.2151C16.0855 30.3015 15.8817 30.3594 15.6793 30.3594C15.3317 30.3594 14.9558 30.1787 14.5775 29.9666C14.5543 29.9507 14.5296 29.9367 14.5036 29.9246C14.4435 29.8905 14.3835 29.8559 14.324 29.8214C13.8727 29.5603 13.4251 29.3016 12.9198 29.1979C12.4011 29.0914 11.8814 29.1596 11.364 29.2273C10.8578 29.2936 10.3548 29.3595 10.0087 29.2124C9.66486 29.0662 9.36523 28.6585 9.06653 28.2522C8.76039 27.8356 8.45518 27.4195 8.02854 27.1304C7.59724 26.838 7.09801 26.7101 6.59925 26.5826C6.11864 26.4597 5.63849 26.3369 5.38027 26.0777C5.12205 25.8185 4.99969 25.3365 4.87733 24.8541C4.75031 24.3535 4.62283 23.8523 4.33158 23.4194C4.04358 22.9911 3.6295 22.6848 3.21402 22.3775C2.80924 22.0781 2.40307 21.7774 2.25744 21.4318C2.11089 21.0843 2.17649 20.579 2.24256 20.0713C2.31002 19.552 2.37795 19.0303 2.27187 18.5096C2.16858 18.0024 1.91082 17.5531 1.65074 17.1001C1.38415 16.6359 1.11476 16.1665 1.11476 15.7397C1.11476 15.3128 1.38415 14.843 1.65074 14.3792C1.91082 13.9262 2.16858 13.4769 2.27187 12.9697C2.37795 12.449 2.31002 11.9273 2.24256 11.408C2.17649 10.8999 2.11089 10.395 2.25744 10.0476C2.40307 9.70243 2.80924 9.40167 3.21402 9.10184C3.6295 8.79454 4.04358 8.48817 4.33158 8.05991C4.62283 7.62698 4.75031 7.12586 4.87733 6.62521C4.99969 6.14277 5.12205 5.6608 5.38027 5.40161C5.63849 5.14241 6.11864 5.01958 6.59925 4.89675C7.09801 4.76925 7.59724 4.64129 8.02854 4.34893C8.45518 4.05984 8.76039 3.64419 9.06653 3.22714C9.36476 2.82083 9.66439 2.41312 10.0087 2.26694C10.3548 2.11982 10.8582 2.18567 11.364 2.25199C11.8814 2.31971 12.4011 2.3879 12.9198 2.28141C13.4251 2.17774 13.8727 1.919 14.324 1.65794C14.7864 1.39033 15.254 1.11992 15.6793 1.11992C16.1045 1.11992 16.5721 1.39033 17.0346 1.65794C17.4859 1.919 17.9335 2.17774 18.4387 2.28141C18.9575 2.3879 19.4772 2.31971 19.9946 2.25199C20.5008 2.18567 21.0037 2.11982 21.3499 2.26694C21.6937 2.41312 21.9933 2.82083 22.292 3.22714C22.5982 3.64419 22.9034 4.05984 23.33 4.34893C23.7613 4.64129 24.2605 4.76925 24.7593 4.89675C25.2399 5.01958 25.7201 5.14241 25.9783 5.40161C26.2365 5.6608 26.3589 6.14277 26.4812 6.62521C26.6082 7.12586 26.7357 7.62698 27.027 8.05991C27.315 8.48817 27.7291 8.79454 28.1445 9.10184C28.5493 9.4012 28.956 9.70197 29.1011 10.0476C29.2477 10.395 29.1821 10.9004 29.116 11.408C29.0485 11.9273 28.9806 12.449 29.0867 12.9697C29.19 13.4769 29.4477 13.9262 29.7078 14.3792C29.7376 14.4311 29.7674 14.4829 29.7971 14.5352C29.2593 15.1475 28.8634 16.1217 28.5423 16.9119C28.3986 17.2654 28.2725 17.576 28.1766 17.7516C28.0064 18.0631 27.8319 18.2966 27.6421 18.4932C27.4434 18.6987 27.2224 18.8729 26.9716 19.0546C26.8432 19.1475 26.7241 19.2307 26.6022 19.3161C26.1165 19.6561 25.5879 20.026 25.1422 20.4814C24.8645 20.7653 24.6253 21.074 24.4225 21.3925C24.1949 21.7493 24.0107 22.1178 23.8651 22.476C23.3249 23.808 23.176 23.9364 21.9524 23.9485C21.9477 23.6875 21.8617 23.446 21.7128 23.2382C22.7289 22.413 23.5747 21.3832 24.1875 20.2105C24.8872 18.8715 25.2832 17.3504 25.2832 15.7392C25.2832 13.0772 24.208 10.6668 22.4702 8.92204C20.732 7.17723 18.3308 6.0984 15.6788 6.0984C13.0268 6.0984 10.6256 7.1777 8.88741 8.92204C7.14919 10.6668 6.07444 13.0772 6.07444 15.7392C6.07444 18.4012 7.14966 20.8115 8.88741 22.5563C10.6256 24.3012 13.0268 25.38 15.6788 25.38C15.9529 25.38 16.2408 25.366 16.5414 25.3393C16.6084 25.3333 16.6754 25.3267 16.7415 25.3193H16.7424ZM16.8387 13.4914L15.6797 10.4763L14.5292 13.469C14.4584 13.6791 14.2654 13.8351 14.0313 13.8473L10.8187 14.0219L13.2971 16.0437C13.4744 16.1754 13.5633 16.4066 13.5037 16.634L12.6756 19.7579L15.368 18.0099C15.5471 17.888 15.7891 17.8782 15.9822 18.0038L18.6839 19.7579L17.8558 16.634C17.8023 16.429 17.8679 16.202 18.0423 16.0596L20.5403 14.0215L17.3277 13.8468C17.1155 13.8356 16.9197 13.7025 16.8382 13.4909L16.8387 13.4914ZM16.1971 8.72775C16.1427 8.58671 16.0315 8.46809 15.8793 8.40878C15.5937 8.29762 15.2722 8.44053 15.1614 8.72775L13.614 12.7535L9.32336 12.987C9.17168 12.995 9.02419 13.065 8.92091 13.192C8.72736 13.4307 8.76365 13.7819 9.0014 13.9757L12.3368 16.6971L11.2314 20.8685C11.1932 21.0152 11.2146 21.1768 11.303 21.3141C11.4701 21.5719 11.8139 21.6456 12.0707 21.478L15.6793 19.1349L19.2697 21.4663C19.399 21.5578 19.5665 21.5938 19.7317 21.5504C20.0285 21.4719 20.2058 21.167 20.1276 20.869L19.0222 16.6975L22.3446 13.9869C22.4698 13.8907 22.5535 13.7427 22.5619 13.5722C22.5777 13.2649 22.3418 13.0029 22.0357 12.987L17.745 12.7535L16.1971 8.72775Z" fill="white"/>
</svg>
