<svg width="66" height="66" viewBox="0 0 66 66" fill="none" xmlns="http://www.w3.org/2000/svg">
<circle cx="33" cy="33" r="33" fill="#6D2900"/>
<path fill-rule="evenodd" clip-rule="evenodd" d="M29.1837 47.6466C29.2137 47.6449 29.2437 47.6449 29.272 47.6466H29.4096C29.4467 47.6396 29.4838 47.6361 29.5226 47.6361L32.4981 47.6379H35.4737C35.5125 47.6379 35.5513 47.6414 35.5884 47.6484H35.7366C35.7666 47.6466 35.7966 47.6466 35.8284 47.6484L36.2167 47.6502C36.5449 47.5554 36.8273 47.364 37.0338 47.1113C37.2474 46.8515 37.3797 46.5268 37.4009 46.1792V46.0002L27.5954 45.9967V46.1511H27.5936C27.6113 46.511 27.7454 46.8428 27.9625 47.1095C28.169 47.3623 28.4513 47.5536 28.7796 47.6484L29.1837 47.6466ZM31.5769 43.0178C31.554 43.0196 31.531 43.0214 31.5081 43.0214C31.4798 43.0214 31.4516 43.0196 31.4234 43.0161L27.5918 42.9687V44.6485H37.4028V43.088L31.5769 43.0178ZM30.8321 41.6663V37.1044H29.6267C28.9437 37.1044 28.3207 36.8359 27.8583 36.3971L27.8142 36.3567C27.3501 35.8951 27.0641 35.2579 27.0641 34.554C27.0641 33.8501 27.3518 33.213 27.8142 32.7531L27.816 32.7549C28.2801 32.2932 28.9208 32.0071 29.6267 32.0071C30.3344 32.0071 30.9751 32.2932 31.4374 32.7531C31.8998 33.213 32.1875 33.8519 32.1875 34.554V35.7547H33.5041V34.554C33.5041 33.8502 33.79 33.213 34.256 32.7531C34.7184 32.2932 35.3608 32.0071 36.0667 32.0071C36.7497 32.0071 37.3745 32.2756 37.8351 32.7145L37.8793 32.7548C38.3416 33.2147 38.6294 33.8536 38.6294 34.5557C38.6294 35.2596 38.3434 35.8968 37.8793 36.3584L37.8775 36.3567C37.4134 36.8183 36.7727 37.1044 36.0668 37.1044H34.8613V41.7157L37.408 41.7473C37.4204 41.2909 37.5316 40.8451 37.7469 40.408C37.9622 39.9692 38.2816 39.5374 38.7052 39.1144L38.7317 39.0863C39.6 38.2578 40.3007 37.2555 40.7789 36.1391C41.2395 35.0667 41.4919 33.8836 41.4919 32.6391C41.4919 30.1711 40.4859 27.9348 38.8587 26.3167C37.2315 24.6983 34.9849 23.6978 32.5018 23.6978C30.0187 23.6978 27.7719 24.6983 26.1449 26.3167C24.5177 27.9351 23.5118 30.1695 23.5118 32.6391C23.5118 33.8836 23.7659 35.0666 24.2265 36.1391C24.7048 37.2573 25.4055 38.2578 26.272 39.0863L26.279 39.095C26.7114 39.5251 27.0379 39.9622 27.2568 40.408C27.4527 40.8065 27.5621 41.2137 27.5903 41.6279L30.8321 41.6663ZM33.5024 41.6979L32.1858 41.6821V37.1027H33.5024V41.6979ZM30.8321 35.7543H29.6267C29.3055 35.7543 29.0161 35.6314 28.8025 35.4331L28.7743 35.4032C28.5572 35.1856 28.4213 34.8854 28.4213 34.5554C28.4213 34.2237 28.5572 33.9235 28.7743 33.7076V33.7059C28.9914 33.49 29.2932 33.3566 29.6267 33.3566C29.9603 33.3566 30.2621 33.4917 30.4791 33.7076C30.698 33.9253 30.8321 34.2254 30.8321 34.5554L30.8321 35.7543ZM34.8596 35.7543V34.5536C34.8596 34.2219 34.9955 33.9218 35.2125 33.7058C35.4314 33.4882 35.7332 33.3548 36.065 33.3548C36.3862 33.3548 36.6756 33.4777 36.8909 33.676L36.9192 33.7058C37.138 33.9235 37.2739 34.2236 37.2739 34.5536C37.2739 34.8854 37.138 35.1855 36.9192 35.4014V35.4032C36.7038 35.6191 36.4021 35.7525 36.0667 35.7525L34.8596 35.7543ZM36.1515 50.2671C36.1515 50.9867 35.915 51.6485 35.5355 52.1347L35.5002 52.175C35.0855 52.6858 34.5084 53 33.866 53H31.1286C30.4668 53 29.8756 52.6682 29.4591 52.1346C29.0796 51.6484 28.8431 50.9867 28.8431 50.267V49.514C28.8026 49.3718 28.7567 49.2033 28.7108 49.0278L28.702 48.9927H28.6931C28.6384 48.9927 28.5837 48.9857 28.5325 48.9734C27.8778 48.8154 27.3165 48.4503 26.9124 47.9571C26.51 47.4638 26.2647 46.8425 26.2417 46.1719V46.1509H26.24V45.6032C26.1464 45.5558 26.0476 45.5049 25.947 45.4522C25.6382 45.289 25.2975 45.11 25.1511 45.0784C24.9569 45.1398 24.258 45.5663 23.5397 46.0052C22.6997 46.5177 21.8367 47.046 21.3319 47.1882C21.1042 47.2514 20.8519 47.1935 20.6736 47.018L16.7856 43.1686C16.618 43.0019 16.5421 42.7491 16.6127 42.5051C16.7574 42.0171 17.2833 41.1605 17.7969 40.3268C18.2469 39.5948 18.6882 38.8804 18.7411 38.7014C18.7093 38.5609 18.5275 38.2204 18.3669 37.9202V37.9167C18.2522 37.7026 18.1463 37.5025 18.0792 37.3375V37.334C17.8869 36.8618 17.7722 36.5002 17.6857 36.2299L17.5727 35.8771C17.5321 35.8437 17.308 35.7911 16.8403 35.6822C16.5526 35.6138 16.1838 35.5278 15.6702 35.3926L15.3578 35.3136C14.726 35.1557 13.7695 34.9134 13.3459 34.68C13.1394 34.5641 13 34.3447 13 34.0937L13.0053 28.7226C12.9947 28.4786 13.1182 28.2364 13.3477 28.1082C13.8101 27.8467 14.9413 27.5641 15.7726 27.3569C16.055 27.2867 16.3038 27.2235 16.4256 27.1902C16.7503 27.1007 16.9604 27.0462 17.1315 27.0041L17.5763 26.8935C17.5869 26.883 17.5992 26.797 17.6663 26.5934C17.7351 26.3792 17.8269 26.0984 17.9752 25.7175C18.1675 25.2225 18.3599 24.8574 18.5152 24.5625C18.6652 24.2782 18.7517 24.1132 18.7429 24.0974C18.6193 23.8428 18.3069 23.3286 17.9663 22.7686C17.4263 21.8804 16.8191 20.8799 16.6391 20.3446C16.5473 20.1041 16.5985 19.825 16.7909 19.6319L20.626 15.7984C20.7972 15.6001 21.076 15.5123 21.3425 15.5966C21.7784 15.7335 23.2309 16.5848 24.2722 17.1939C24.5687 17.3677 24.8316 17.5204 25.0452 17.6432L25.0822 17.6625C25.1775 17.7169 25.2411 17.6836 25.4423 17.5748C25.7299 17.4186 26.1341 17.1991 26.7906 16.9482C27.1771 16.799 27.4595 16.7077 27.6748 16.641C27.8725 16.5778 27.9572 16.5655 27.9678 16.555C27.9748 16.5479 27.9978 16.4233 28.0772 16.1337C28.1195 15.9792 28.1707 15.7914 28.2696 15.4597C28.4019 15.0173 28.499 14.6628 28.5961 14.3117C28.7602 13.7149 28.9208 13.1304 29.1361 12.4827C29.2173 12.2036 29.4767 12 29.7838 12L35.1702 12.0053C35.4226 11.9877 35.675 12.1123 35.8074 12.3475C36.0527 12.7793 36.651 15.0454 36.9122 16.0389L37.0145 16.4251C37.0428 16.5304 36.8786 16.4584 36.9669 16.5146C36.981 16.5234 37.0816 16.5567 37.2475 16.6094C37.461 16.6778 37.7558 16.7744 38.1458 16.9218C38.3276 16.9903 38.587 17.1184 38.8694 17.2571C39.2612 17.4502 39.7095 17.6696 39.8542 17.7082C40.0501 17.6432 40.749 17.2167 41.4673 16.7796C42.2756 16.2864 43.1069 15.7791 43.6099 15.6176C43.8534 15.5264 44.1358 15.5773 44.3317 15.7704L48.2109 19.6285C48.3785 19.7952 48.4527 20.0462 48.3821 20.2902C48.2638 20.7062 47.3743 22.207 46.7602 23.2426C46.5819 23.5445 46.4266 23.8043 46.3119 24.0062C46.2519 24.1097 46.2854 24.1694 46.3913 24.3642C46.5501 24.6539 46.776 25.0646 47.0266 25.7193C47.1537 26.0493 47.2472 26.3337 47.3178 26.5548C47.3884 26.7743 47.422 26.8866 47.4255 26.8883C47.4326 26.8936 47.5967 26.9357 47.9479 27.0253C48.1085 27.0656 48.2991 27.1148 48.5126 27.1727L48.9168 27.2798C49.7357 27.4939 51.1988 27.8766 51.6259 28.0925C51.8482 28.2031 52 28.4313 52 28.6928L51.9947 34.0585C52.0124 34.3639 51.8182 34.6535 51.5111 34.7431L48.5762 35.6032L47.4167 35.9086L47.3478 36.1526C47.2225 36.5896 47.0125 37.3181 46.3207 38.6117C46.3048 38.6275 46.2854 38.6855 46.2695 38.7013L46.2607 38.696C46.3119 38.7996 46.4089 38.9575 46.4989 39.1067C46.5536 39.1945 46.6031 39.2788 46.679 39.4139C46.799 39.6281 46.9543 39.8878 47.1308 40.1827C47.5985 40.9638 48.1968 41.9608 48.3627 42.4418C48.4562 42.6822 48.4068 42.9648 48.2126 43.1597L44.3758 46.9915C44.2046 47.1898 43.9258 47.2776 43.6593 47.1933C43.2022 47.0494 41.8044 46.2279 40.779 45.6241C40.4102 45.4064 40.0837 45.2151 39.9319 45.1291C39.8278 45.0694 39.7643 45.1045 39.556 45.2168C39.3601 45.3239 39.1077 45.4591 38.7601 45.6153V46.1524C38.7601 46.1822 38.7583 46.2121 38.7548 46.2402C38.7195 46.8861 38.4759 47.4811 38.0859 47.9586C37.6817 48.4518 37.1205 48.8169 36.4657 48.9749C36.4128 48.9872 36.3598 48.9942 36.3069 48.9942L36.2857 49.0749C36.2434 49.2347 36.1975 49.3927 36.1534 49.5454V50.2668L36.1515 50.2671ZM34.4678 51.3062C34.6707 51.0464 34.796 50.6778 34.796 50.2653V48.9857L34.4731 48.9839L32.4982 48.9857H30.5233L30.1986 48.9874V50.2671C30.1986 50.6796 30.3239 51.0482 30.5286 51.3079C30.6945 51.5203 30.908 51.652 31.1286 51.652H33.8659C34.0777 51.652 34.2824 51.5326 34.4448 51.3378L34.4678 51.3062ZM26.2399 44.0869C25.8781 43.9061 25.504 43.7463 25.1651 43.7323C25.1281 43.7288 25.0893 43.7305 25.0504 43.7341C24.5969 43.7797 23.7268 44.3116 22.832 44.8574C22.2707 45.1997 21.6972 45.5508 21.3071 45.7474L18.0615 42.5352C18.261 42.1508 18.6086 41.5838 18.9528 41.0274C19.5123 40.1182 20.0594 39.2317 20.0982 38.7929H20.0965L20.0982 38.7332C20.0965 38.2821 19.8123 37.752 19.5652 37.2904C19.4699 37.1131 19.3835 36.9481 19.3358 36.834C19.1505 36.3794 19.0499 36.0635 18.974 35.8282C18.8187 35.3456 18.7393 35.0945 18.4322 34.8435C18.1428 34.6083 17.8198 34.5311 17.1492 34.3749C16.8474 34.3046 16.4627 34.2134 16.0161 34.0958L15.6879 34.0115C15.2837 33.9097 14.7295 33.771 14.3519 33.6464L14.3572 29.1371C14.8072 28.9844 15.5326 28.8036 16.1026 28.6597C16.355 28.5965 16.5774 28.5421 16.7856 28.4824C17.0221 28.4175 17.2639 28.356 17.4598 28.3069C17.9946 28.1717 18.2487 28.1085 18.5029 27.8698C18.7429 27.6434 18.8152 27.4222 18.9529 27.001C19.0182 26.8026 19.1029 26.5411 19.2353 26.1988C19.4029 25.767 19.5741 25.4422 19.71 25.1807C20.0612 24.5137 20.2624 24.1311 19.9589 23.5097C19.8 23.1814 19.4771 22.6513 19.1241 22.0721C18.7305 21.4261 18.2999 20.7153 18.0669 20.2589L21.286 17.0414C21.8367 17.3257 22.8286 17.9068 23.5875 18.3509C23.9122 18.5404 24.1964 18.7089 24.3728 18.809L24.4099 18.8318C25.1582 19.2566 25.3753 19.139 26.0865 18.7546C26.3389 18.6176 26.6972 18.4246 27.276 18.2016C27.6237 18.0682 27.8867 17.984 28.0843 17.919C28.4938 17.7874 28.7091 17.7189 28.9332 17.4907C29.175 17.2432 29.2421 16.9975 29.3815 16.4849C29.4345 16.2866 29.5015 16.0426 29.5633 15.8372C29.6709 15.4739 29.7839 15.0667 29.8951 14.6629C30.0169 14.2224 30.1351 13.7888 30.2745 13.3412L34.7555 13.3465C34.9903 14.0609 35.4015 15.6161 35.6027 16.3814L35.705 16.7675C35.8286 17.2309 35.8797 17.4187 36.2239 17.6417C36.3845 17.747 36.5504 17.7996 36.8274 17.8892C37.0181 17.9506 37.2793 18.0348 37.6622 18.1805C37.8052 18.2332 38.0276 18.3438 38.2694 18.4631C38.8041 18.7264 39.4148 19.0266 39.826 19.0547C39.8648 19.0582 39.9054 19.0582 39.946 19.0529C40.3943 19.009 41.2696 18.4754 42.1697 17.926C42.731 17.5837 43.3028 17.2344 43.6911 17.0378L46.9225 20.2517C46.6384 20.7941 46.0383 21.8069 45.5936 22.5582C45.3924 22.897 45.2229 23.1848 45.1329 23.3376C44.7006 24.0906 44.8188 24.3029 45.2018 25.0016C45.3377 25.249 45.53 25.6001 45.7577 26.1916C45.8919 26.5427 45.9677 26.7761 46.0277 26.9587C46.1672 27.3887 46.2431 27.6187 46.4831 27.8504C46.7496 28.1066 47.0231 28.1751 47.6091 28.3243C47.7573 28.3629 47.932 28.4068 48.1526 28.4665L48.5674 28.5736C49.1586 28.728 50.1081 28.9773 50.6446 29.1475L50.6411 33.5884C49.6881 33.8675 48.7368 34.1571 47.7785 34.4151C46.9455 34.6363 46.6313 34.7188 46.3525 35.0663C46.1849 35.2769 46.1284 35.4683 46.0384 35.7789C45.929 36.1616 45.7437 36.8023 45.1189 37.9748L45.0747 38.0573C44.8188 38.5277 44.7447 38.6664 45.0165 39.2316L45.0324 39.2685C45.1189 39.4457 45.2283 39.6283 45.3342 39.8003L45.493 40.0654C45.5813 40.2251 45.7613 40.5252 45.9643 40.864C46.2978 41.4204 46.702 42.0945 46.9243 42.5297L43.707 45.7454C43.1652 45.4663 42.2086 44.9029 41.4603 44.4623C41.132 44.2692 40.8479 44.1025 40.592 43.9585C39.8366 43.5302 39.616 43.6496 38.903 44.0358L38.753 44.1165V41.8522H38.7494V41.8469C38.7459 41.5678 38.8165 41.2834 38.9559 40.9956C39.1059 40.6884 39.3371 40.3795 39.646 40.0688L39.6936 40.0214C40.6749 39.0735 41.4691 37.9344 42.0144 36.6635C42.5456 35.4243 42.8404 34.0622 42.8404 32.6369C42.8404 29.7968 41.6826 27.2235 39.8101 25.3614C37.9411 23.4991 35.3556 22.3476 32.4981 22.3476C29.6406 22.3476 27.0552 23.4991 25.1829 25.3614C23.3104 27.2238 22.1527 29.7953 22.1527 32.6369C22.1527 34.064 22.4474 35.4243 22.9768 36.6635C23.5239 37.9414 24.3234 39.0876 25.3153 40.0372L25.3223 40.0459C25.6436 40.3637 25.8818 40.6796 26.0353 40.9956C26.1677 41.2659 26.2365 41.5327 26.2418 41.796L26.2401 41.8539L26.2383 44.0866L26.2399 44.0869ZM46.2572 38.6892L46.2607 38.6945L46.2642 38.6962L46.2572 38.6892Z" fill="white"/>
</svg>
