<svg width="39" height="41" viewBox="0 0 39 41" fill="none" xmlns="http://www.w3.org/2000/svg">
<path fill-rule="evenodd" clip-rule="evenodd" d="M16.1837 35.6466C16.2137 35.6449 16.2437 35.6449 16.272 35.6466H16.4096C16.4467 35.6396 16.4838 35.6361 16.5226 35.6361L19.4981 35.6379H22.4737C22.5125 35.6379 22.5513 35.6414 22.5884 35.6484H22.7366C22.7666 35.6466 22.7966 35.6466 22.8284 35.6484L23.2167 35.6502C23.5449 35.5554 23.8273 35.364 24.0338 35.1113C24.2474 34.8515 24.3797 34.5268 24.4009 34.1792V34.0002L14.5954 33.9967V34.1511H14.5936C14.6113 34.511 14.7454 34.8428 14.9625 35.1095C15.169 35.3623 15.4513 35.5536 15.7796 35.6484L16.1837 35.6466ZM18.5769 31.0178C18.554 31.0196 18.531 31.0214 18.5081 31.0214C18.4798 31.0214 18.4516 31.0196 18.4234 31.0161L14.5918 30.9687V32.6485H24.4028V31.088L18.5769 31.0178ZM17.8321 29.6663V25.1044H16.6267C15.9437 25.1044 15.3207 24.8359 14.8583 24.3971L14.8142 24.3567C14.3501 23.8951 14.0641 23.2579 14.0641 22.554C14.0641 21.8501 14.3518 21.213 14.8142 20.7531L14.816 20.7549C15.2801 20.2932 15.9208 20.0071 16.6267 20.0071C17.3344 20.0071 17.9751 20.2932 18.4374 20.7531C18.8998 21.213 19.1875 21.8519 19.1875 22.554V23.7547H20.5041V22.554C20.5041 21.8502 20.79 21.213 21.256 20.7531C21.7184 20.2932 22.3608 20.0071 23.0667 20.0071C23.7497 20.0071 24.3745 20.2756 24.8351 20.7145L24.8793 20.7548C25.3416 21.2147 25.6294 21.8536 25.6294 22.5557C25.6294 23.2596 25.3434 23.8968 24.8793 24.3584L24.8775 24.3567C24.4134 24.8183 23.7727 25.1044 23.0668 25.1044H21.8613V29.7157L24.408 29.7473C24.4204 29.2909 24.5316 28.8451 24.7469 28.408C24.9622 27.9692 25.2816 27.5374 25.7052 27.1144L25.7317 27.0863C26.6 26.2578 27.3007 25.2555 27.7789 24.1391C28.2395 23.0667 28.4919 21.8836 28.4919 20.6391C28.4919 18.1711 27.4859 15.9348 25.8587 14.3167C24.2315 12.6983 21.9849 11.6978 19.5018 11.6978C17.0187 11.6978 14.7719 12.6983 13.1449 14.3167C11.5177 15.9351 10.5118 18.1695 10.5118 20.6391C10.5118 21.8836 10.7659 23.0666 11.2265 24.1391C11.7048 25.2573 12.4055 26.2578 13.272 27.0863L13.279 27.095C13.7114 27.5251 14.0379 27.9622 14.2568 28.408C14.4527 28.8065 14.5621 29.2137 14.5903 29.6279L17.8321 29.6663ZM20.5024 29.6979L19.1858 29.6821V25.1027H20.5024V29.6979ZM17.8321 23.7543H16.6267C16.3055 23.7543 16.0161 23.6314 15.8025 23.4331L15.7743 23.4032C15.5572 23.1856 15.4213 22.8854 15.4213 22.5554C15.4213 22.2237 15.5572 21.9235 15.7743 21.7076V21.7059C15.9914 21.49 16.2932 21.3566 16.6267 21.3566C16.9603 21.3566 17.2621 21.4917 17.4791 21.7076C17.698 21.9253 17.8321 22.2254 17.8321 22.5554L17.8321 23.7543ZM21.8596 23.7543V22.5536C21.8596 22.2219 21.9955 21.9218 22.2125 21.7058C22.4314 21.4882 22.7332 21.3548 23.065 21.3548C23.3862 21.3548 23.6756 21.4777 23.8909 21.676L23.9192 21.7058C24.138 21.9235 24.2739 22.2236 24.2739 22.5536C24.2739 22.8854 24.138 23.1855 23.9192 23.4014V23.4032C23.7038 23.6191 23.4021 23.7525 23.0667 23.7525L21.8596 23.7543ZM23.1515 38.2671C23.1515 38.9867 22.915 39.6485 22.5355 40.1347L22.5002 40.175C22.0855 40.6858 21.5084 41 20.866 41H18.1286C17.4668 41 16.8756 40.6682 16.4591 40.1346C16.0796 39.6484 15.8431 38.9867 15.8431 38.267V37.514C15.8026 37.3718 15.7567 37.2033 15.7108 37.0278L15.702 36.9927H15.6931C15.6384 36.9927 15.5837 36.9857 15.5325 36.9734C14.8778 36.8154 14.3165 36.4503 13.9124 35.9571C13.51 35.4638 13.2647 34.8425 13.2417 34.1719V34.1509H13.24V33.6032C13.1464 33.5558 13.0476 33.5049 12.947 33.4522C12.6382 33.289 12.2975 33.11 12.1511 33.0784C11.9569 33.1398 11.258 33.5663 10.5397 34.0052C9.69966 34.5177 8.83667 35.046 8.33191 35.1882C8.10424 35.2514 7.85186 35.1935 7.67363 35.018L3.78562 31.1686C3.61796 31.0019 3.54207 30.7491 3.61266 30.5051C3.75738 30.0171 4.28332 29.1605 4.79689 28.3268C5.24693 27.5948 5.68816 26.8804 5.74107 26.7014C5.7093 26.5609 5.52752 26.2204 5.36692 25.9202V25.9167C5.2522 25.7026 5.14631 25.5025 5.07925 25.3375V25.334C4.88688 24.8618 4.77216 24.5002 4.68569 24.2299L4.57273 23.8771C4.53214 23.8437 4.308 23.7911 3.84031 23.6822C3.55264 23.6138 3.18379 23.5278 2.67023 23.3926L2.35785 23.3136C1.72604 23.1557 0.769479 22.9134 0.345911 22.68C0.139423 22.5641 0 22.3447 0 22.0937L0.00529481 16.7226C-0.0052946 16.4786 0.118246 16.2364 0.347677 16.1082C0.810055 15.8467 1.94133 15.5641 2.77261 15.3569C3.05498 15.2867 3.30384 15.2235 3.4256 15.1902C3.75034 15.1007 3.96036 15.0462 4.13155 15.0041L4.57629 14.8935C4.58688 14.883 4.59924 14.797 4.6663 14.5934C4.73513 14.3792 4.82691 14.0984 4.97515 13.7175C5.16752 13.2225 5.35989 12.8574 5.51519 12.5625C5.66521 12.2782 5.75169 12.1132 5.74286 12.0974C5.61932 11.8428 5.30694 11.3286 4.9663 10.7686C4.42626 9.88042 3.81912 8.87993 3.63912 8.34457C3.54735 8.1041 3.59853 7.82503 3.7909 7.63194L7.62596 3.79842C7.79715 3.60007 8.076 3.5123 8.34248 3.59656C8.7784 3.73347 10.2309 4.58478 11.2722 5.19388C11.5687 5.36765 11.8316 5.52036 12.0452 5.64323L12.0822 5.66254C12.1775 5.71695 12.2411 5.6836 12.4423 5.57477C12.7299 5.41855 13.1341 5.19914 13.7906 4.94815C14.1771 4.79895 14.4595 4.70767 14.6748 4.64098C14.8725 4.57778 14.9572 4.5655 14.9678 4.55497C14.9748 4.54794 14.9978 4.42332 15.0772 4.1337C15.1195 3.97923 15.1707 3.79141 15.2696 3.45967C15.4019 3.01733 15.499 2.66278 15.5961 2.3117C15.7602 1.71491 15.9208 1.13039 16.1361 0.482696C16.2173 0.203607 16.4767 0 16.7838 0L22.1702 0.00526608C22.4226 -0.0122866 22.675 0.112338 22.8074 0.347548C23.0527 0.77935 23.651 3.04542 23.9122 4.0389L24.0145 4.42507C24.0428 4.53039 23.8786 4.45842 23.9669 4.51459C23.981 4.52336 24.0816 4.55671 24.2475 4.60937C24.461 4.67783 24.7558 4.77437 25.1458 4.92181C25.3276 4.99027 25.587 5.11841 25.8694 5.25707C26.2612 5.45015 26.7095 5.66956 26.8542 5.70818C27.0501 5.64323 27.749 5.21667 28.4673 4.77963C29.2756 4.28638 30.1069 3.7791 30.6099 3.61765C30.8534 3.52638 31.1358 3.57728 31.3317 3.77036L35.2109 7.62847C35.3785 7.79522 35.4527 8.04622 35.3821 8.29023C35.2638 8.70623 34.3743 10.207 33.7602 11.2426C33.5819 11.5445 33.4266 11.8043 33.3119 12.0062C33.2519 12.1097 33.2854 12.1694 33.3913 12.3642C33.5501 12.6539 33.776 13.0646 34.0266 13.7193C34.1537 14.0493 34.2472 14.3337 34.3178 14.5548C34.3884 14.7743 34.422 14.8866 34.4255 14.8883C34.4326 14.8936 34.5967 14.9357 34.9479 15.0253C35.1085 15.0656 35.2991 15.1148 35.5126 15.1727L35.9168 15.2798C36.7357 15.4939 38.1988 15.8766 38.6259 16.0925C38.8482 16.2031 39 16.4313 39 16.6928L38.9947 22.0585C39.0124 22.3639 38.8182 22.6535 38.5111 22.7431L35.5762 23.6032L34.4167 23.9086L34.3478 24.1526C34.2225 24.5896 34.0125 25.3181 33.3207 26.6117C33.3048 26.6275 33.2854 26.6855 33.2695 26.7013L33.2607 26.696C33.3119 26.7996 33.4089 26.9575 33.4989 27.1067C33.5536 27.1945 33.6031 27.2788 33.679 27.4139C33.799 27.6281 33.9543 27.8878 34.1308 28.1827C34.5985 28.9638 35.1968 29.9608 35.3627 30.4418C35.4562 30.6822 35.4068 30.9648 35.2126 31.1597L31.3758 34.9915C31.2046 35.1898 30.9258 35.2776 30.6593 35.1933C30.2022 35.0494 28.8044 34.2279 27.779 33.6241C27.4102 33.4064 27.0837 33.2151 26.9319 33.1291C26.8278 33.0694 26.7643 33.1045 26.556 33.2168C26.3601 33.3239 26.1077 33.4591 25.7601 33.6153V34.1524C25.7601 34.1822 25.7583 34.2121 25.7548 34.2402C25.7195 34.8861 25.4759 35.4811 25.0859 35.9586C24.6817 36.4518 24.1205 36.8169 23.4657 36.9749C23.4128 36.9872 23.3598 36.9942 23.3069 36.9942L23.2857 37.0749C23.2434 37.2347 23.1975 37.3927 23.1534 37.5454V38.2668L23.1515 38.2671ZM21.4678 39.3062C21.6707 39.0464 21.796 38.6778 21.796 38.2653V36.9857L21.4731 36.9839L19.4982 36.9857H17.5233L17.1986 36.9874V38.2671C17.1986 38.6796 17.3239 39.0482 17.5286 39.3079C17.6945 39.5203 17.908 39.652 18.1286 39.652H20.8659C21.0777 39.652 21.2824 39.5326 21.4448 39.3378L21.4678 39.3062ZM13.2399 32.0869C12.8781 31.9061 12.504 31.7463 12.1651 31.7323C12.1281 31.7288 12.0893 31.7305 12.0504 31.7341C11.5969 31.7797 10.7268 32.3116 9.83198 32.8574C9.27074 33.1997 8.69718 33.5508 8.30713 33.7474L5.06154 30.5352C5.26098 30.1508 5.60863 29.5838 5.95282 29.0274C6.51229 28.1182 7.05938 27.2317 7.09824 26.7929H7.09647L7.09824 26.7332C7.09647 26.2821 6.81233 25.752 6.56524 25.2904C6.46994 25.1131 6.38346 24.9481 6.33581 24.834C6.1505 24.3794 6.0499 24.0635 5.97401 23.8282C5.81871 23.3456 5.73929 23.0945 5.43221 22.8435C5.14277 22.6083 4.81979 22.5311 4.14917 22.3749C3.84738 22.3046 3.46266 22.2134 3.01614 22.0958L2.68787 22.0115C2.28372 21.9097 1.72955 21.771 1.35188 21.6464L1.35718 17.1371C1.80722 16.9844 2.5326 16.8036 3.10264 16.6597C3.35501 16.5965 3.57739 16.5421 3.78563 16.4824C4.02212 16.4175 4.26391 16.356 4.45982 16.3069C4.99457 16.1717 5.24871 16.1085 5.50285 15.8698C5.74287 15.6434 5.81524 15.4222 5.95289 15.001C6.01819 14.8026 6.1029 14.5411 6.23527 14.1988C6.40293 13.767 6.57412 13.4422 6.71003 13.1807C7.06123 12.5137 7.26245 12.1311 6.95887 11.5097C6.80004 11.1814 6.47707 10.6513 6.12407 10.0721C5.73051 9.42614 5.29989 8.71526 5.06694 8.25885L8.28605 5.04139C8.83671 5.32575 9.82856 5.90676 10.5875 6.35085C10.9122 6.54043 11.1964 6.70893 11.3728 6.80897L11.4099 6.83179C12.1582 7.25657 12.3753 7.13896 13.0865 6.75455C13.3389 6.61764 13.6972 6.42456 14.276 6.20162C14.6237 6.06822 14.8867 5.98396 15.0843 5.91902C15.4938 5.78737 15.7091 5.71892 15.9332 5.49073C16.175 5.24323 16.2421 4.99747 16.3815 4.48494C16.4345 4.28659 16.5015 4.0426 16.5633 3.83724C16.6709 3.4739 16.7839 3.06669 16.8951 2.66294C17.0169 2.22237 17.1351 1.78881 17.2745 1.34121L21.7555 1.34648C21.9903 2.06086 22.4015 3.61608 22.6027 4.38137L22.705 4.76754C22.8286 5.23091 22.8797 5.41874 23.2239 5.64166C23.3845 5.74698 23.5504 5.79964 23.8274 5.88916C24.0181 5.95059 24.2793 6.03485 24.6622 6.18054C24.8052 6.2332 25.0276 6.34378 25.2694 6.46314C25.8041 6.72644 26.4148 7.02659 26.826 7.05467C26.8648 7.05818 26.9054 7.05818 26.946 7.05292C27.3943 7.00903 28.2696 6.47541 29.1697 5.92603C29.731 5.58374 30.3028 5.23443 30.6911 5.03783L33.9225 8.25175C33.6384 8.79412 33.0383 9.80692 32.5936 10.5582C32.3924 10.897 32.2229 11.1848 32.1329 11.3376C31.7006 12.0906 31.8188 12.3029 32.2018 13.0016C32.3377 13.249 32.53 13.6001 32.7577 14.1916C32.8919 14.5427 32.9677 14.7761 33.0277 14.9587C33.1672 15.3887 33.2431 15.6187 33.4831 15.8504C33.7496 16.1066 34.0231 16.1751 34.6091 16.3243C34.7573 16.3629 34.932 16.4068 35.1526 16.4665L35.5674 16.5736C36.1586 16.728 37.1081 16.9773 37.6446 17.1475L37.6411 21.5884C36.6881 21.8675 35.7368 22.1571 34.7785 22.4151C33.9455 22.6363 33.6313 22.7188 33.3525 23.0663C33.1849 23.2769 33.1284 23.4683 33.0384 23.7789C32.929 24.1616 32.7437 24.8023 32.1189 25.9748L32.0747 26.0573C31.8188 26.5277 31.7447 26.6664 32.0165 27.2316L32.0324 27.2685C32.1189 27.4457 32.2283 27.6283 32.3342 27.8003L32.493 28.0654C32.5813 28.2251 32.7613 28.5252 32.9643 28.864C33.2978 29.4204 33.702 30.0945 33.9243 30.5297L30.707 33.7454C30.1652 33.4663 29.2086 32.9029 28.4603 32.4623C28.132 32.2692 27.8479 32.1025 27.592 31.9585C26.8366 31.5302 26.616 31.6496 25.903 32.0358L25.753 32.1165V29.8522H25.7494V29.8469C25.7459 29.5678 25.8165 29.2834 25.9559 28.9956C26.1059 28.6884 26.3371 28.3795 26.646 28.0688L26.6936 28.0214C27.6749 27.0735 28.4691 25.9344 29.0144 24.6635C29.5456 23.4243 29.8404 22.0622 29.8404 20.6369C29.8404 17.7968 28.6826 15.2235 26.8101 13.3614C24.9411 11.4991 22.3556 10.3476 19.4981 10.3476C16.6406 10.3476 14.0552 11.4991 12.1829 13.3614C10.3104 15.2238 9.15265 17.7953 9.15265 20.6369C9.15265 22.064 9.44738 23.4243 9.97684 24.6635C10.5239 25.9414 11.3234 27.0876 12.3153 28.0372L12.3223 28.0459C12.6436 28.3637 12.8818 28.6796 13.0353 28.9956C13.1677 29.2659 13.2365 29.5327 13.2418 29.796L13.2401 29.8539L13.2383 32.0866L13.2399 32.0869ZM33.2572 26.6892L33.2607 26.6945L33.2642 26.6962L33.2572 26.6892Z" fill="white"/>
</svg>
