<svg width="40" height="44" viewBox="0 0 40 44" fill="none" xmlns="http://www.w3.org/2000/svg">
<path fill-rule="evenodd" clip-rule="evenodd" d="M12.6622 38.6657L14.5998 36.2324C14.6994 36.1228 14.7623 35.9844 14.7797 35.8368C14.7971 35.6891 14.7681 35.5397 14.6967 35.4096C14.5819 35.2063 14.3952 35.0542 14.1741 34.9838C14.0327 34.9421 13.8819 34.9461 13.7429 34.9953C13.6039 35.0445 13.4836 35.1364 13.399 35.258L11.4614 37.6908C11.362 37.8006 11.2992 37.9391 11.2818 38.0868C11.2645 38.2344 11.2934 38.3839 11.3645 38.5141C11.4802 38.7169 11.6668 38.8688 11.8877 38.94C12.0291 38.9817 12.1798 38.9776 12.3188 38.9284C12.4578 38.8792 12.5776 38.7874 12.6622 38.6657ZM15.9562 41.0251C15.9394 41.2668 16.0071 41.5067 16.1475 41.7032C16.243 41.8484 16.3705 41.9694 16.52 42.0567C16.6487 42.1317 16.7967 42.1657 16.9448 42.1545C17.1067 42.1246 17.2609 42.0619 17.3981 41.9703C17.5354 41.8788 17.6529 41.7601 17.7436 41.6216L18.1147 41.1557C18.2565 40.993 18.3375 40.7855 18.3438 40.569C18.3362 40.3694 18.267 40.1773 18.1457 40.0195C18.0087 39.8357 17.8306 39.6873 17.6259 39.5863C17.4922 39.5152 17.3448 39.4743 17.1938 39.4665L15.9528 41.0251H15.9562ZM16.4149 38.584L14.9888 40.3749C14.9726 40.3926 14.9574 40.4112 14.9433 40.4306C14.8429 40.5517 14.708 40.6386 14.557 40.6797C14.406 40.7208 14.2461 40.7141 14.099 40.6604C13.9727 40.6179 13.8548 40.5534 13.7507 40.4697C13.65 40.3907 13.5645 40.2938 13.4983 40.1837C13.4244 40.0628 13.391 39.921 13.4031 39.7794C13.4152 39.6378 13.4722 39.5039 13.5656 39.3976L15.5033 36.9648C15.5777 36.8566 15.6835 36.7744 15.8062 36.7295C15.9289 36.6847 16.0624 36.6794 16.1882 36.7145C16.2986 36.7484 16.4006 36.8056 16.4876 36.8822C16.5841 36.966 16.6628 37.0686 16.7191 37.1838C16.809 37.4088 16.8325 37.6552 16.7867 37.8933C16.741 38.1314 16.628 38.3511 16.4614 38.5259C16.4448 38.5442 16.4294 38.5636 16.4154 38.584H16.4149ZM33.7401 31.8035C33.7491 31.8237 33.757 31.8445 33.7638 31.8656L34.5161 33.8177C34.5366 33.866 34.5746 33.9045 34.6224 33.9253C34.6701 33.9461 34.724 33.9477 34.7728 33.9297L38.7178 32.3814C38.7657 32.3608 38.8039 32.3224 38.8246 32.2742C38.8452 32.2259 38.8467 32.1716 38.8287 32.1222L34.0651 19.7589C34.0545 19.7368 34.0451 19.7141 34.037 19.691C34.0152 19.6525 33.9817 19.6223 33.9415 19.6046C33.9012 19.587 33.8564 19.583 33.8137 19.5932C33.7918 19.6026 33.7693 19.6108 33.7464 19.6176L29.8915 21.1308C29.8696 21.1414 29.8471 21.1509 29.8242 21.1591C29.7855 21.1809 29.7554 21.2154 29.7389 21.2569C29.7209 21.2976 29.7167 21.3431 29.7268 21.3865C29.7365 21.4085 29.7448 21.4312 29.7515 21.4544L30.0906 22.3344C30.0945 22.3442 30.0983 22.3535 30.1017 22.3633V22.3662L33.7386 31.802L33.7401 31.8035ZM5.97989 32.463C5.98667 32.4459 5.99394 32.4288 6.00217 32.4141L10.7212 21.5884C10.7422 21.5398 10.7433 21.4848 10.7241 21.4354C10.7148 21.4112 10.7009 21.3892 10.6831 21.3706C10.6653 21.352 10.644 21.3371 10.6205 21.3268L6.74525 19.6064C6.72167 19.5955 6.69617 19.5895 6.67025 19.5887C6.64434 19.5879 6.61853 19.5924 6.59436 19.6019C6.5702 19.6114 6.54816 19.6257 6.52956 19.6439C6.51096 19.6622 6.49618 19.684 6.48609 19.7081L1.17364 31.8934C1.15265 31.942 1.15161 31.9971 1.17073 32.0465C1.18009 32.0706 1.19412 32.0927 1.212 32.1113C1.22988 32.1299 1.25126 32.1448 1.27488 32.155L5.15011 33.8759C5.19827 33.8971 5.25279 33.8982 5.30172 33.8789C5.32566 33.8694 5.3475 33.8553 5.36596 33.8372C5.38442 33.8192 5.39914 33.7976 5.40926 33.7738L5.98086 32.4625L5.97989 32.463ZM9.79311 35.2854L10.6069 34.2631C10.7308 34.0648 10.9037 33.9024 11.1087 33.7921C11.3136 33.6817 11.5436 33.6272 11.7758 33.6339C11.9086 33.6511 12.0359 33.6986 12.1478 33.7728C12.2545 33.8416 12.3449 33.9332 12.4128 34.0412C12.4649 34.1167 12.4971 34.2043 12.5063 34.2958C12.5156 34.3874 12.5015 34.4798 12.4656 34.5643L10.6505 36.8421C10.5142 36.8726 10.3718 36.8553 10.2465 36.7932C10.0856 36.7177 9.94436 36.6052 9.83429 36.4647C9.72013 36.3253 9.64118 36.16 9.6042 35.9831C9.58092 35.8705 9.58217 35.7541 9.60784 35.642C9.63352 35.5299 9.68302 35.4247 9.75291 35.3338C9.76678 35.3182 9.77988 35.3019 9.79214 35.2849L9.79311 35.2854ZM17.4951 24.8425C17.5615 24.777 17.6283 24.711 17.6952 24.6469C18.2087 24.1444 18.7124 23.6628 19.1043 23.3186C19.367 23.0443 19.6848 22.8299 20.0363 22.6899C20.4485 22.6166 20.8709 22.6252 21.2798 22.7153C21.7385 22.7789 22.3571 22.8845 23.0212 22.9979C24.2322 23.2047 25.591 23.4379 26.6005 23.5161C27.2398 23.5781 27.8843 23.5598 28.5192 23.4619C28.7517 23.4226 28.9814 23.3684 29.207 23.2995C30.2616 26.0931 31.3568 28.8823 32.4414 31.6685C31.6087 32.0196 31.3839 32.6405 31.1228 33.3592C30.9098 34.137 30.4006 34.7983 29.7065 35.1989L20.573 27.7896C20.2844 27.5268 19.923 27.3596 19.5374 27.3105C19.3348 27.2872 19.1295 27.3078 18.9354 27.3708C18.7413 27.4339 18.5627 27.538 18.4116 27.6762C18.1632 27.9298 18.003 28.258 17.9553 28.6114L17.9437 28.6564C17.899 28.8484 17.8644 29.0426 17.84 29.2382C17.8139 29.422 17.7848 29.6225 17.7431 29.821C17.6863 30.0826 17.6068 30.3386 17.5053 30.5861C17.4221 30.7919 17.316 30.9874 17.189 31.1689C17.0489 31.3668 16.8772 31.5398 16.6808 31.6808C16.5423 31.7912 16.3797 31.8665 16.2064 31.9006C16.0331 31.9346 15.8543 31.9263 15.6849 31.8763C15.5298 31.8371 15.3779 31.7859 15.2305 31.7233C15.1337 31.6847 15.3274 31.7619 15.3085 31.2984V31.2896C15.277 30.4419 15.2146 28.7562 15.2068 27.8854C15.183 27.6554 15.2041 27.4229 15.2688 27.201C15.4361 26.9341 15.6392 26.6919 15.8724 26.4813C16.2662 26.0716 16.8465 25.482 17.4443 24.8914C17.4612 24.8759 17.4774 24.8596 17.4927 24.8425H17.4951ZM27.8725 38.8984C27.8599 38.9473 27.8454 38.9962 27.8294 39.0451C27.6526 39.5683 27.2986 40.0117 26.8296 40.2972C26.565 40.4693 26.2604 40.5687 25.946 40.5854C25.6316 40.6021 25.3184 40.5356 25.0373 40.3925C25.0247 40.4414 25.0106 40.4873 24.9951 40.5338C24.819 41.0573 24.4655 41.5012 23.9968 41.7873C23.6297 42.0192 23.1947 42.1163 22.765 42.0621C22.7466 42.196 22.716 42.3279 22.6734 42.4561C22.4978 42.9784 22.1455 43.4215 21.6784 43.7077C21.3516 43.9208 20.9655 44.0219 20.5773 43.996C20.1891 43.9701 19.8195 43.8186 19.5233 43.564L18.3859 42.6414C18.0311 43.0223 17.5532 43.2628 17.0383 43.3195C16.6614 43.3502 16.2842 43.265 15.9562 43.0751C15.6487 42.8987 15.3862 42.6525 15.1894 42.3559C15.0737 42.1839 14.9809 41.9973 14.9133 41.801C14.5295 41.9101 14.122 41.8993 13.7444 41.7702C13.487 41.6859 13.2464 41.5563 13.0338 41.3874C12.8206 41.2188 12.6399 41.0119 12.5009 40.7772C12.3832 40.5791 12.3012 40.3614 12.2587 40.1343C12.0203 40.1528 11.7805 40.1257 11.552 40.0547C11.0448 39.897 10.6163 39.5499 10.3541 39.0842C10.1621 38.7496 10.0794 38.3625 10.1177 37.9778C10.0003 37.9493 9.88581 37.9098 9.77567 37.86C9.44547 37.7061 9.15535 37.4767 8.92832 37.19C8.70129 36.9032 8.54361 36.567 8.46778 36.208C8.3779 35.7722 8.44073 35.3184 8.64556 34.9241C8.41562 34.4516 8.10803 34.0218 7.73585 33.653C7.48172 33.4686 7.1857 33.3518 6.87507 33.3132L6.46962 34.2421C6.32362 34.5731 6.05397 34.8325 5.71938 34.9638C5.38479 35.0951 5.01234 35.0877 4.68314 34.9432L0.807914 33.2228C0.479771 33.0756 0.22259 32.8035 0.0924619 32.4657C-0.0376659 32.1279 -0.0301828 31.7519 0.113279 31.4197L5.42622 19.2348C5.57222 18.9042 5.84162 18.645 6.17587 18.5138C6.51012 18.3825 6.88221 18.3897 7.21124 18.5337L11.0865 20.2542C11.4144 20.4015 11.6715 20.6737 11.8016 21.0114C11.9317 21.3491 11.9243 21.725 11.7811 22.0572L11.6164 22.4347C11.8828 22.5872 12.1493 22.7353 12.4249 22.8718C12.8515 23.0888 13.2971 23.2655 13.756 23.3998C14.7707 23.6457 15.8061 23.795 16.8484 23.8456L16.8862 23.8085C17.407 23.2986 17.9272 22.8048 18.3394 22.4396C18.7263 22.0435 19.1991 21.7435 19.7205 21.5635C20.2838 21.4394 20.8667 21.4373 21.4309 21.5571C21.9415 21.628 22.5523 21.7321 23.2082 21.8446C24.3896 22.046 25.7184 22.2729 26.6833 22.3491C27.2303 22.4034 27.7818 22.3896 28.3254 22.3081C28.4827 22.2814 28.6384 22.2461 28.7919 22.2024C28.7454 22.0776 28.6991 21.9529 28.6529 21.8284C28.5239 21.4902 28.5331 21.1142 28.6784 20.7828C28.8236 20.4514 29.0932 20.1917 29.4279 20.0606C30.7358 19.5433 32.0573 19.0104 33.3739 18.5117C33.709 18.3816 34.0815 18.3908 34.4099 18.5375C34.7382 18.6841 34.9956 18.9561 35.1255 19.294L39.9085 31.7013C39.9728 31.8688 40.0038 32.0474 39.9996 32.2269C39.9955 32.4065 39.9563 32.5835 39.8843 32.7477C39.8123 32.912 39.7089 33.0603 39.5801 33.1841C39.4513 33.308 39.2995 33.405 39.1334 33.4697L35.1884 35.0185C35.0225 35.0835 34.8455 35.1148 34.6675 35.1107C34.4896 35.1065 34.3142 35.067 34.1514 34.9943C33.9886 34.9217 33.8416 34.8173 33.7188 34.6872C33.596 34.5571 33.4999 34.4039 33.4359 34.2362C33.2479 33.7473 33.0593 33.2599 32.8701 32.7739C32.5327 33.0014 32.2956 33.3518 32.2084 33.7518C31.9429 34.7102 31.3365 35.5362 30.5052 36.0716C30.6128 36.2974 30.6768 36.5418 30.6937 36.7917C30.7267 37.3042 30.573 37.8112 30.2616 38.2174C30.2433 38.2448 30.2227 38.2707 30.2001 38.2946C29.8731 38.6897 29.4143 38.9506 28.9101 39.028C28.5581 39.0822 28.1982 39.0358 27.871 38.894L27.8725 38.8984ZM27.1488 36.8968L23.461 33.9053C23.3414 33.808 23.1884 33.7627 23.0357 33.7793C22.883 33.7959 22.7431 33.873 22.6468 33.9938C22.5504 34.1145 22.5055 34.2689 22.522 34.423C22.5384 34.5771 22.6148 34.7183 22.7344 34.8156L26.5874 37.9387C26.677 38.0351 26.7381 38.1548 26.7637 38.2844C26.7894 38.414 26.7787 38.5483 26.7327 38.672C26.6431 38.9304 26.4683 39.1499 26.2376 39.2939C26.1112 39.3771 25.9616 39.4169 25.811 39.4075C25.6604 39.398 25.5168 39.3399 25.4016 39.2416L21.9938 36.4774C21.9657 36.4548 21.9357 36.4346 21.9042 36.4172L21.8615 36.383C21.7419 36.2858 21.5889 36.2405 21.4362 36.257C21.2835 36.2736 21.1436 36.3508 21.0473 36.4715C20.9509 36.5922 20.906 36.7466 20.9225 36.9008C20.9389 37.0549 21.0153 37.1961 21.1349 37.2933L23.6698 39.3467C23.7896 39.4392 23.8767 39.5682 23.9182 39.7145C23.9597 39.8609 23.9535 40.0168 23.9004 40.1593C23.811 40.4179 23.6362 40.6376 23.4053 40.7817C23.2789 40.8646 23.1293 40.9044 22.9787 40.8949C22.8282 40.8855 22.6846 40.8275 22.5693 40.7293L20.6583 39.179C20.5387 39.0818 20.3857 39.0365 20.233 39.0531C20.0803 39.0697 19.9404 39.1468 19.844 39.2675C19.7476 39.3882 19.7028 39.5426 19.7192 39.6968C19.7356 39.8509 19.8121 39.9921 19.9317 40.0894L21.2308 41.1429C21.2628 41.1906 21.3017 41.2331 21.3461 41.2691C21.466 41.3615 21.5532 41.4905 21.5948 41.6368C21.6364 41.7831 21.6302 41.9391 21.5772 42.0816C21.5335 42.2101 21.468 42.3299 21.3834 42.4356C21.2997 42.5422 21.1978 42.6329 21.0826 42.7035C20.9562 42.7867 20.8066 42.8265 20.656 42.817C20.5054 42.8076 20.3618 42.7495 20.2465 42.6512L19.1227 41.7419C19.3665 41.3988 19.4976 40.9872 19.4977 40.5651C19.4896 40.1204 19.3424 39.6897 19.0772 39.3345C18.8327 38.9988 18.513 38.7262 18.1442 38.5391C18.0448 38.4889 17.942 38.4457 17.8366 38.41C17.9405 38.1298 17.9868 37.8311 17.9728 37.5322C17.9587 37.2334 17.8845 36.9405 17.7548 36.6715C17.6296 36.4131 17.454 36.1829 17.2384 35.9948C17.0268 35.811 16.7792 35.6742 16.5118 35.5934C16.3249 35.5374 16.1303 35.5118 15.9353 35.5177C15.9022 35.2784 15.8244 35.0477 15.7062 34.8376C15.4442 34.3717 15.0154 34.0246 14.5078 33.8676C14.2076 33.772 13.8882 33.7552 13.5797 33.8187C13.533 33.6817 13.4711 33.5505 13.3951 33.4276C13.2344 33.1673 13.0181 32.9463 12.7621 32.7809C12.5061 32.6155 12.2169 32.5097 11.9153 32.4713C11.4868 32.435 11.0565 32.5139 10.668 32.7C10.2796 32.8861 9.94695 33.1727 9.70398 33.5308L9.39832 33.9146C9.15332 33.4737 8.83588 33.0781 8.45955 32.7446C8.13564 32.485 7.75639 32.3049 7.35172 32.2186L11.149 23.5078C11.397 23.6486 11.6503 23.7865 11.9138 23.918C12.4044 24.1669 12.9167 24.3696 13.4441 24.5237C14.206 24.7254 14.9841 24.859 15.7692 24.9232C15.495 25.2014 15.2465 25.4566 15.0455 25.6653C14.7146 25.9641 14.4362 26.3171 14.222 26.7096C14.0732 27.0853 14.0161 27.4916 14.0554 27.8942C14.0636 28.808 14.1261 30.4854 14.1571 31.3307V31.3385C14.2026 32.5608 14.2026 32.5608 14.8043 32.8052C15.006 32.8905 15.2139 32.9599 15.4262 33.013C15.7406 33.0928 16.0677 33.1073 16.3878 33.0556C16.7339 32.9872 17.0612 32.8438 17.3469 32.6351C17.649 32.4198 17.9136 32.1554 18.1302 31.8529C18.3096 31.5989 18.4598 31.3252 18.5778 31.0369C18.7047 30.7257 18.8039 30.4037 18.8742 30.0747C18.9343 29.8014 18.9638 29.5946 18.991 29.4054C19.0102 29.2498 19.0374 29.0952 19.0723 28.9424L19.0791 28.894C19.097 28.7556 19.1467 28.6233 19.2244 28.5078C19.2532 28.4888 19.2854 28.4758 19.3191 28.4696C19.3529 28.4633 19.3876 28.464 19.4211 28.4716C19.5758 28.4987 19.7187 28.5725 19.8309 28.6833L19.8416 28.6921L29.2516 36.3253C29.267 36.3397 29.2832 36.3533 29.3 36.3659C29.4429 36.496 29.5288 36.678 29.5388 36.8719C29.5534 37.1092 29.4788 37.3432 29.3301 37.5275C29.1845 37.7128 28.9753 37.8361 28.7439 37.8732C28.6452 37.89 28.544 37.8861 28.4468 37.8616C28.3496 37.8371 28.2585 37.7926 28.1791 37.7309L27.3668 37.0733C27.3227 37.0313 27.2767 36.9902 27.2273 36.9506C27.2026 36.9306 27.1763 36.9126 27.1488 36.8968ZM17.9742 8.39687C17.9138 8.35061 17.863 8.29279 17.8247 8.22671C17.7864 8.16063 17.7613 8.08759 17.751 8.01175C17.7407 7.93591 17.7453 7.85877 17.7645 7.78471C17.7837 7.71066 17.8172 7.64115 17.863 7.58016C17.9556 7.45698 18.0929 7.37596 18.2446 7.35491C18.3197 7.34449 18.3962 7.34911 18.4696 7.36851C18.5429 7.38791 18.6118 7.4217 18.6722 7.46796L19.6594 8.22575L21.225 6.25793C21.2727 6.19815 21.3316 6.14845 21.3984 6.11166C21.4651 6.07486 21.5384 6.05169 21.614 6.04347C21.6896 6.03526 21.7661 6.04215 21.8391 6.06376C21.9121 6.08538 21.9801 6.12128 22.0393 6.16944C22.0985 6.21759 22.1478 6.27704 22.1842 6.34441C22.2207 6.41177 22.2437 6.48572 22.2518 6.56203C22.2599 6.63835 22.2531 6.71553 22.2317 6.78918C22.2103 6.86283 22.1747 6.93151 22.127 6.99128L20.2097 9.40205C20.1154 9.52013 19.9792 9.59642 19.83 9.61468C19.6808 9.63294 19.5305 9.59174 19.4109 9.49983L17.9752 8.39883L17.9742 8.39687ZM15.5691 14.3087L14.0568 17.596L15.5677 17.4601C15.6747 17.4432 15.7843 17.4567 15.8841 17.4993C15.9839 17.5419 16.07 17.6118 16.1325 17.7011L17.0272 18.986L18.5947 15.5778C18.5584 15.56 18.5202 15.5464 18.4809 15.5373C18.3207 15.5263 18.1598 15.539 18.0033 15.5749C17.6338 15.6719 17.2441 15.6557 16.8838 15.5285C16.5406 15.3565 16.2569 15.0838 16.07 14.7462C15.9921 14.6152 15.8957 14.4965 15.7837 14.3937C15.7168 14.3549 15.6444 14.3264 15.5691 14.3091V14.3087ZM25.8148 13.6125C25.9686 13.3551 26.0712 13.07 26.117 12.773C26.14 12.6218 26.1854 12.475 26.2517 12.3374C26.3535 12.2246 26.4712 12.1274 26.6009 12.049C26.9352 11.86 27.2053 11.5738 27.376 11.2276C27.5028 10.8642 27.5197 10.4709 27.4244 10.0978C27.3885 9.9398 27.3758 9.77738 27.3866 9.6157C27.4386 9.46347 27.5117 9.31944 27.6037 9.18791C27.8428 8.86743 27.9839 8.48337 28.0096 8.083C27.984 7.68245 27.8429 7.2982 27.6037 6.97759C27.5117 6.84606 27.4386 6.70203 27.3866 6.5498C27.3758 6.38812 27.3885 6.2257 27.4244 6.06775C27.5197 5.69462 27.5028 5.30132 27.376 4.9379C27.2053 4.5917 26.9352 4.30547 26.6009 4.11654C26.4711 4.03828 26.3534 3.94108 26.2517 3.82809C26.1854 3.69053 26.14 3.54368 26.117 3.39248C26.0707 3.012 25.9122 2.65433 25.6622 2.36579C25.3764 2.11335 25.0219 1.95356 24.6449 1.9072C24.4953 1.88366 24.35 1.83768 24.2138 1.7708C24.1017 1.66817 24.0052 1.54939 23.9275 1.4183C23.7405 1.08079 23.4569 0.808137 23.1137 0.63606C22.7537 0.507796 22.3639 0.490774 21.9943 0.58717C21.8377 0.62305 21.6768 0.635731 21.5166 0.624815C21.366 0.572574 21.2234 0.498992 21.0933 0.406276C20.7756 0.166369 20.3955 0.025179 19.9995 0C19.6026 0.0258953 19.222 0.168301 18.9043 0.409699C18.774 0.502324 18.6315 0.575899 18.4809 0.628237C18.3207 0.639153 18.1598 0.626472 18.0033 0.590592C17.6336 0.494197 17.2438 0.511218 16.8838 0.639482C16.5407 0.81156 16.257 1.08421 16.07 1.42172C15.9923 1.55281 15.8958 1.67159 15.7837 1.77422C15.6476 1.8411 15.5022 1.88708 15.3526 1.91062C14.9756 1.95698 14.6212 2.11677 14.3354 2.36921C14.0853 2.65775 13.9268 3.01542 13.8805 3.3959C13.8576 3.54719 13.8121 3.69408 13.7454 3.83151C13.644 3.94464 13.5264 4.04186 13.3966 4.11997C13.0623 4.30889 12.7922 4.59513 12.6215 4.94132C12.4947 5.30474 12.4778 5.69804 12.5731 6.07117C12.609 6.22929 12.6217 6.39187 12.6109 6.55371C12.5586 6.70565 12.4856 6.84947 12.3939 6.98101C12.1546 7.30163 12.0135 7.68587 11.9879 8.08642C12.0136 8.48679 12.1547 8.87086 12.3939 9.19133C12.4857 9.32298 12.5587 9.46698 12.6109 9.61912C12.6217 9.78081 12.609 9.94322 12.5731 10.1012C12.4778 10.4743 12.4947 10.8676 12.6215 11.231C12.7922 11.5772 13.0623 11.8635 13.3966 12.0524C13.5263 12.1306 13.6438 12.2278 13.7454 12.3408C13.8121 12.4783 13.8576 12.6252 13.8805 12.7764C13.9267 13.157 14.0852 13.5147 14.3354 13.8031C14.3779 13.8459 14.4232 13.8858 14.471 13.9224L12.5818 18.0292C12.5405 18.121 12.5238 18.2222 12.5334 18.3225C12.5398 18.3988 12.5612 18.4731 12.5961 18.5411C12.631 18.6091 12.6789 18.6694 12.737 18.7187C12.7951 18.768 12.8623 18.8052 12.9346 18.8282C13.007 18.8513 13.0832 18.8597 13.1587 18.853L15.3749 18.6535L16.6571 20.4849C16.7156 20.569 16.795 20.6359 16.8873 20.6791C16.9797 20.7223 17.0816 20.7401 17.183 20.7309C17.2843 20.7216 17.3814 20.6855 17.4645 20.6263C17.5477 20.5671 17.6138 20.4868 17.6564 20.3935L19.626 16.1122C19.7479 16.1466 19.8739 16.1641 20.0005 16.164C20.2582 16.1599 20.5109 16.0918 20.7363 15.9655L22.7708 20.3935C22.8133 20.4868 22.8795 20.5671 22.9627 20.6263C23.0458 20.6855 23.1429 20.7216 23.2442 20.7309C23.3456 20.7401 23.4475 20.7223 23.5399 20.6791C23.6322 20.6359 23.7116 20.569 23.7701 20.4849L25.0499 18.6467L27.2655 18.8476C27.3415 18.8549 27.4181 18.847 27.491 18.8242C27.5638 18.8015 27.6315 18.7643 27.6901 18.715C27.7486 18.6657 27.7969 18.6051 27.8321 18.5368C27.8674 18.4685 27.8888 18.3939 27.8953 18.3172C27.9041 18.2166 27.8865 18.1154 27.8444 18.0238L25.8162 13.6144L25.8148 13.6125ZM21.8189 15.547L23.4005 18.9855L24.2952 17.7007C24.3577 17.6113 24.4437 17.5414 24.5435 17.4988C24.6433 17.4563 24.7529 17.4427 24.86 17.4596L26.3708 17.5955L24.8169 14.2177L24.6464 14.2568C24.4967 14.28 24.3514 14.3258 24.2153 14.3927C24.1033 14.4955 24.0068 14.6143 23.929 14.7452C23.7419 15.0827 23.4583 15.3554 23.1152 15.5275C22.7549 15.6547 22.3652 15.6709 21.9957 15.5739C21.9361 15.5642 21.8761 15.5549 21.8189 15.547ZM20.6757 14.6475C20.6936 14.6362 20.7121 14.6255 20.7314 14.6157C20.9037 14.5122 21.0913 14.4371 21.287 14.3932C21.5837 14.3465 21.8863 14.3565 22.1793 14.4226C22.3389 14.4643 22.505 14.4749 22.6686 14.4539C22.7946 14.3514 22.9001 14.2254 22.9791 14.0828C23.1201 13.8175 23.3233 13.591 23.5708 13.423C23.8183 13.255 24.1027 13.1505 24.3993 13.1187C24.5398 13.0949 24.6769 13.0542 24.8077 12.9974L24.8222 12.9881C24.8299 12.9829 24.8371 12.9768 24.8435 12.97C24.9206 12.8315 24.97 12.679 24.9888 12.5212C25.0354 12.2248 25.1382 11.9403 25.2916 11.6833C25.4694 11.4444 25.6911 11.2424 25.9446 11.0883C26.0856 11.0083 26.2102 10.9019 26.3118 10.7749C26.3328 10.6097 26.3225 10.4419 26.2812 10.2806C26.2159 9.98554 26.2062 9.68069 26.2527 9.382C26.3255 9.09291 26.4497 8.81958 26.6194 8.57532C26.7291 8.42929 26.807 8.26152 26.848 8.083C26.8071 7.90444 26.7291 7.73666 26.6194 7.59067C26.4498 7.34619 26.3256 7.07271 26.2527 6.7835C26.2062 6.48481 26.2159 6.17997 26.2812 5.8849C26.3225 5.72376 26.3328 5.55616 26.3118 5.39111C26.2103 5.26378 26.0857 5.15723 25.9446 5.07723C25.6911 4.9231 25.4694 4.72108 25.2916 4.48224C25.1381 4.22521 25.0353 3.94067 24.9888 3.64427C24.97 3.48651 24.9206 3.33402 24.8435 3.19546C24.7061 3.11794 24.5551 3.06812 24.3988 3.04878C24.1051 3.00228 23.8232 2.89867 23.5686 2.74371C23.3318 2.56432 23.1315 2.34056 22.9786 2.08467C22.8996 1.94206 22.7942 1.81608 22.6681 1.7136C22.5045 1.69256 22.3385 1.70318 22.1788 1.74489C21.8864 1.81057 21.5844 1.82035 21.2885 1.77373C21.0019 1.70024 20.7309 1.57484 20.4887 1.40363C20.3436 1.29288 20.1769 1.21441 19.9995 1.17336C19.8226 1.21489 19.6563 1.2937 19.5117 1.40461C19.2695 1.57582 18.9985 1.70122 18.7119 1.77471C18.4152 1.82079 18.1125 1.81017 17.8197 1.74342C17.66 1.70171 17.494 1.69109 17.3304 1.71213C17.2043 1.81462 17.0989 1.94059 17.0199 2.08321C16.867 2.33909 16.6667 2.56285 16.4299 2.74224C16.1753 2.89721 15.8934 3.00081 15.5997 3.04732C15.4434 3.06666 15.2924 3.11647 15.155 3.19399C15.0779 3.33256 15.0285 3.48504 15.0097 3.6428C14.9632 3.9392 14.8604 4.22375 14.7069 4.48077C14.5291 4.71961 14.3074 4.92163 14.0539 5.07577C13.9128 5.15576 13.7882 5.26231 13.6867 5.38964C13.6657 5.5547 13.676 5.7223 13.7173 5.88343C13.7826 6.1785 13.7923 6.48334 13.7458 6.78203C13.6729 7.07124 13.5487 7.34472 13.3792 7.58921C13.2694 7.73519 13.1914 7.90298 13.1505 8.08153C13.1915 8.26005 13.2694 8.42782 13.3792 8.57385C13.5488 8.81811 13.673 9.09145 13.7458 9.38054C13.7923 9.67923 13.7826 9.98407 13.7173 10.2791C13.6758 10.4404 13.6654 10.6082 13.6867 10.7734C13.7883 10.9004 13.9129 11.0068 14.0539 11.0868C14.308 11.2417 14.5301 11.4448 14.7079 11.6847C14.8613 11.9416 14.9641 12.226 15.0106 12.5222C15.0295 12.68 15.0789 12.8325 15.1559 12.971C15.215 13.0147 15.2828 13.0449 15.3545 13.0595C15.377 13.0639 15.3992 13.0698 15.4209 13.0771C15.4781 13.0918 15.5396 13.1055 15.6006 13.1192C15.8944 13.1656 16.1764 13.2694 16.4309 13.4247C16.6677 13.603 16.8684 13.8256 17.0219 14.0803C17.1009 14.223 17.2063 14.3489 17.3324 14.4514C17.4951 14.473 17.6605 14.4632 17.8197 14.4226C18.1121 14.357 18.4141 14.3474 18.71 14.3942C18.9966 14.4675 19.2675 14.5928 19.5098 14.7638L19.6066 14.8249C19.6257 14.8349 19.6442 14.846 19.6619 14.8582C19.7616 14.9286 19.8759 14.9754 19.9961 14.9951C20.173 14.9535 20.3393 14.8747 20.4839 14.7638C20.5464 14.7252 20.6089 14.6861 20.6723 14.6484L20.6757 14.6475ZM22.5465 5.51187C21.9573 4.91689 21.1819 4.54653 20.3524 4.4639C19.5229 4.38126 18.6908 4.59146 17.9977 5.05869C17.3046 5.52591 16.7934 6.22124 16.5513 7.0262C16.3092 7.83116 16.3512 8.69594 16.67 9.47317C16.9889 10.2504 17.5649 10.892 18.2999 11.2887C19.0349 11.6853 19.8835 11.8125 20.701 11.6484C21.5184 11.4844 22.2543 11.0394 22.7831 10.3891C23.3119 9.73891 23.601 8.92373 23.601 8.08251C23.6017 7.60504 23.5089 7.13214 23.3279 6.69098C23.1469 6.24983 22.8814 5.84912 22.5465 5.51187ZM19.9995 3.27563C18.8977 3.27562 17.83 3.66118 16.9784 4.36662C16.1267 5.07206 15.5437 6.05373 15.3288 7.14436C15.1138 8.235 15.2802 9.36711 15.7996 10.3478C16.319 11.3285 17.1592 12.0971 18.1771 12.5226C19.195 12.9481 20.3277 13.0042 21.382 12.6814C22.4363 12.3586 23.3471 11.6767 23.9591 10.7521C24.5712 9.82751 24.8467 8.71729 24.7386 7.61066C24.6306 6.50402 24.1457 5.46943 23.3666 4.68318C22.9249 4.23627 22.4 3.88185 21.8222 3.6403C21.2444 3.39874 20.6249 3.27482 19.9995 3.27563Z" fill="white"/>
</svg>
