<svg width="45" height="38" viewBox="0 0 45 38" fill="none" xmlns="http://www.w3.org/2000/svg">
<path d="M44.9858 22.2855L43.751 16.9052C43.4328 15.5156 42.581 14.4574 41.2871 13.8384L39.6789 13.0717C40.4297 12.2161 40.8889 11.1029 40.8889 9.88189C40.8889 7.21076 38.6994 5.0356 36.0107 5.0356C33.322 5.0356 31.1325 7.21076 31.1325 9.88189C31.1325 11.1029 31.5898 12.2161 32.3425 13.0717L30.7343 13.8384C30.719 13.8441 30.7095 13.8535 30.6942 13.8573L30.2369 11.8696C29.9187 10.48 29.0669 9.42181 27.773 8.80279L26.1647 8.03611C26.9155 7.18045 27.3748 6.06731 27.3748 4.84629C27.3748 2.17516 25.1853 0 22.4966 0C19.8079 0 17.6184 2.17516 17.6184 4.84629C17.6184 6.06731 18.0757 7.18045 18.8284 8.03611L17.2201 8.80279C15.9263 9.42181 15.0745 10.4839 14.7563 11.8696L14.2989 13.8573C14.2837 13.8516 14.2742 13.8422 14.2589 13.8384L12.6506 13.0717C13.4014 12.2161 13.8607 11.1029 13.8607 9.88189C13.8607 7.21076 11.6712 5.0356 8.98248 5.0356C6.29377 5.0356 4.10429 7.21076 4.10429 9.88189C4.10429 11.1029 4.56162 12.2161 5.31433 13.0717L3.70604 13.8384C2.4122 14.4574 1.56042 15.5156 1.24216 16.9052L0.0150061 22.2855C-0.0250101 22.4691 0.0150061 22.6622 0.135053 22.8042C0.255101 22.9519 0.428506 23.0371 0.617155 23.0371H12.9726C12.9421 23.1317 12.9136 23.2302 12.8831 23.3248L11.8827 23.4479C11.1319 23.5368 10.564 24.1748 10.564 24.9264V27.359C10.564 28.1105 11.1319 28.7485 11.8827 28.8375L12.8831 28.9605C13.0812 29.6326 13.3556 30.2857 13.6949 30.9047L13.0718 31.696C12.603 32.2886 12.6583 33.1348 13.1918 33.6686L14.924 35.3894C15.4613 35.9233 16.3131 35.9725 16.9095 35.5087L17.706 34.8897C18.3291 35.2266 18.9809 35.4973 19.663 35.6961L19.7869 36.69C19.8764 37.4359 20.5186 38 21.2751 38H23.7294C24.4859 38 25.1281 37.4358 25.2177 36.69L25.3415 35.6961C26.018 35.4992 26.6754 35.2266 27.2985 34.8897L28.095 35.5087C28.6915 35.9744 29.5433 35.9195 30.0806 35.3894L31.8127 33.6686C32.3501 33.1347 32.3996 32.2885 31.9328 31.696L31.3097 30.9047C31.6489 30.2857 31.9214 29.6382 32.1215 28.9605L33.1219 28.8375C33.8727 28.7485 34.4405 28.1105 34.4405 27.359V24.9264C34.4405 24.1748 33.8727 23.5368 33.1219 23.4479L32.1215 23.3248C32.091 23.2302 32.0624 23.1317 32.0319 23.0371H44.3874C44.576 23.0371 44.7552 22.9538 44.8695 22.8042C44.9857 22.6622 45.0239 22.4691 44.9858 22.2855ZM36.0109 6.26273C38.0174 6.26273 39.6543 7.88512 39.6543 9.88232C39.6543 11.8757 38.0212 13.5019 36.0109 13.5019C34.0044 13.5019 32.3675 11.8795 32.3675 9.88232C32.3656 7.88512 34.0044 6.26273 36.0109 6.26273ZM22.5008 1.22501C24.5073 1.22501 26.1442 2.84741 26.1442 4.84461C26.1442 6.83803 24.5111 8.4642 22.5008 8.4642C20.4942 8.4642 18.8573 6.84181 18.8573 4.84461C18.8573 2.84552 20.4942 1.22501 22.5008 1.22501ZM15.9703 12.1388C16.2047 11.1299 16.8221 10.3537 17.7615 9.90311L19.8481 8.90357C20.6103 9.39764 21.5212 9.68542 22.4968 9.68542C23.4724 9.68542 24.3833 9.39767 25.1455 8.90357L27.2321 9.90311C28.1734 10.3537 28.7946 11.1241 29.0233 12.1388L29.5854 14.5961C28.9928 15.1356 28.5755 15.8133 28.3354 16.6141C28.2458 16.6595 28.1562 16.7125 28.0724 16.7769L27.2759 17.3959C26.6528 17.059 26.0011 16.7882 25.3189 16.5895L25.195 15.5956C25.1055 14.8497 24.4633 14.2856 23.7068 14.2856H21.2525C20.496 14.2856 19.8538 14.8497 19.7643 15.5956L19.6404 16.5895C18.9639 16.7863 18.3065 17.0589 17.6834 17.3959L16.8869 16.7769C16.803 16.7125 16.7173 16.6576 16.6239 16.6141C16.3895 15.8134 15.9665 15.1299 15.3739 14.5961L15.9703 12.1388ZM8.99012 6.26273C10.9967 6.26273 12.6335 7.88512 12.6335 9.88232C12.6335 11.8757 11.0005 13.5019 8.99012 13.5019C6.97977 13.5019 5.3467 11.8795 5.3467 9.88232C5.3467 7.88512 6.98548 6.26273 8.99012 6.26273ZM1.39478 21.8106L2.45998 17.182C2.69437 16.173 3.31176 15.3968 4.25121 14.9463L6.33775 13.9467C7.09997 14.4408 8.01083 14.7286 8.98646 14.7286C9.9621 14.7286 10.873 14.4408 11.6352 13.9467L13.7217 14.9463C14.4782 15.3078 15.0251 15.8758 15.3338 16.6122C15.1852 16.6822 15.0442 16.7807 14.9203 16.8999L13.1882 18.6207C12.6508 19.1546 12.6013 20.0008 13.0681 20.5933L13.6912 21.3846C13.6169 21.5228 13.5426 21.6667 13.4721 21.8106L1.39478 21.8106ZM32.9698 24.6653C33.1051 24.6805 33.1985 24.7884 33.1985 24.9228V27.3554C33.1985 27.4898 33.0994 27.5977 32.9698 27.6128L31.5559 27.7851C31.3025 27.8154 31.0929 27.9971 31.0281 28.2451C30.8185 29.0857 30.485 29.8864 30.0334 30.6342C29.8981 30.8519 29.9191 31.1283 30.0791 31.3309L30.9595 32.4478C31.0434 32.5519 31.0338 32.6996 30.9405 32.7942L29.2083 34.515C29.113 34.6097 28.9644 34.6192 28.8596 34.534L27.7353 33.6594C27.5314 33.5003 27.2532 33.4871 27.0341 33.6139C26.2871 34.0588 25.4811 34.3958 24.635 34.6021C24.3854 34.6608 24.2024 34.8691 24.1719 35.1265L23.9985 36.5311C23.9833 36.6656 23.8747 36.7583 23.7394 36.7583H21.2851C21.1498 36.7583 21.0412 36.6599 21.0259 36.5311L20.8525 35.1265C20.822 34.8747 20.6391 34.6665 20.3895 34.6021C19.5434 34.3939 18.7374 34.0626 17.9904 33.6139C17.8913 33.5552 17.7808 33.525 17.6721 33.525C17.5368 33.525 17.4035 33.5704 17.2891 33.6537L16.1648 34.5283C16.06 34.6116 15.9114 34.6021 15.8161 34.5094L14.084 32.7885C13.9887 32.6939 13.9792 32.5462 14.0649 32.4421L14.9453 31.3252C15.1054 31.1226 15.1187 30.8462 14.991 30.6285C14.5432 29.8865 14.204 29.0857 13.9963 28.2451C13.9373 27.9971 13.7276 27.8154 13.4685 27.7851L12.0546 27.6128C11.9193 27.5977 11.8259 27.4898 11.8259 27.3554V24.9228C11.8259 24.7884 11.925 24.6805 12.0546 24.6653L13.4685 24.4931C13.7219 24.4628 13.9315 24.281 13.9963 24.033C14.2059 23.1925 14.5394 22.3917 14.991 21.6496C15.1263 21.4319 15.1054 21.1556 14.9453 20.953L14.0649 19.8361C13.9811 19.7319 13.9906 19.5843 14.084 19.4896L15.8161 17.7688C15.9114 17.6742 16.06 17.6647 16.1648 17.7499L17.2891 18.6245C17.493 18.7835 17.7712 18.7968 17.9904 18.6699C18.7373 18.225 19.5434 17.8881 20.3895 17.6817C20.6391 17.623 20.822 17.4148 20.8525 17.1573L21.0259 15.7527C21.0412 15.6183 21.1498 15.5255 21.2851 15.5255H23.7394C23.8747 15.5255 23.9833 15.624 23.9985 15.7527L24.1719 17.1573C24.2024 17.4091 24.3854 17.6174 24.635 17.6817C25.4811 17.89 26.2871 18.2213 27.0341 18.6699C27.2532 18.8043 27.5314 18.7835 27.7353 18.6245L28.8596 17.7499C28.9644 17.6666 29.113 17.676 29.2083 17.7688L30.9328 19.4915C31.0281 19.5862 31.0376 19.7338 30.9519 19.8379L30.0715 20.9549C29.9115 21.1574 29.8981 21.4338 30.0258 21.6515C30.4736 22.3936 30.8128 23.1944 31.0205 24.0349C31.0796 24.2829 31.2892 24.4647 31.5483 24.4949L32.9698 24.6653ZM31.5254 21.8106C31.4549 21.6667 31.3806 21.5228 31.3063 21.3846L31.9294 20.5933C32.3982 20.0008 32.3429 19.1546 31.8094 18.6208L30.0772 16.8999C29.9533 16.7769 29.8142 16.6822 29.6637 16.6122C29.9724 15.8796 30.5193 15.306 31.2758 14.9463L33.3624 13.9467C34.1246 14.4408 35.0354 14.7286 36.0111 14.7286C36.9867 14.7286 37.8976 14.4408 38.6598 13.9467L40.7463 14.9463C41.6877 15.3968 42.3088 16.1673 42.5375 17.182L43.6027 21.8106L31.5254 21.8106ZM22.5008 19.3988C18.7583 19.3988 15.7113 22.4258 15.7113 26.1438C15.7113 29.8619 18.7583 32.8889 22.5008 32.8889C26.2433 32.8889 29.2903 29.8619 29.2903 26.1438C29.2903 22.4239 26.2433 19.3988 22.5008 19.3988ZM22.5008 31.6623C19.4386 31.6623 16.946 29.1899 16.946 26.1438C16.946 23.1017 19.4347 20.6254 22.5008 20.6254C25.5669 20.6254 28.0556 23.0978 28.0556 26.1438C28.0556 29.1841 25.5631 31.6623 22.5008 31.6623ZM25.422 24.0066C25.6659 24.2433 25.6716 24.6351 25.4373 24.8775L22.1178 28.2699C21.9977 28.3929 21.8339 28.4573 21.6757 28.4573C21.5214 28.4573 21.367 28.3986 21.247 28.285L19.5853 26.6967C19.3357 26.4601 19.3319 26.0739 19.5701 25.8259C19.8083 25.5779 20.197 25.5741 20.4467 25.8108L21.6662 26.9769L24.5531 24.0199C24.7856 23.7738 25.1781 23.77 25.422 24.0066Z" fill="white"/>
</svg>
