<svg width="38" height="38" viewBox="0 0 38 38" fill="none" xmlns="http://www.w3.org/2000/svg">
<path d="M7.37946 15.1167L8.75 15.3871L9.72026 17.7318L8.94272 18.8925C8.64786 19.3344 8.70386 19.9033 9.0778 20.2792L11.2357 22.4392C11.6047 22.8086 12.1879 22.8663 12.6211 22.5744L13.7808 21.7962L16.1232 22.7673L16.3934 24.1392C16.4955 24.6602 16.9387 25.0246 17.4691 25.0246H20.5215C21.0437 25.0246 21.4967 24.652 21.5972 24.1392L21.8673 22.7673L24.2098 21.7962L25.3695 22.5744C25.8027 22.8663 26.3858 22.8086 26.7548 22.4392L28.9128 20.2792C29.2883 19.9033 29.3443 19.3344 29.0478 18.8925L28.2703 17.7318L29.2406 15.3871L30.6111 15.1167C31.1234 15.0161 31.4957 14.5627 31.4957 14.04V10.9847C31.4957 10.462 31.1234 10.0102 30.6111 9.90796L29.2406 9.63754L28.2703 7.29288L29.0478 6.13209C29.3427 5.69019 29.2867 5.12136 28.9128 4.74539L26.7548 2.5854C26.3858 2.21605 25.8027 2.15835 25.3695 2.45019L24.2098 3.22847L21.8673 2.25729L21.5972 0.885449C21.4967 0.372676 21.0437 0 20.5215 0H17.4691C16.9387 0 16.4972 0.364395 16.3934 0.885449L16.1232 2.25729L13.7808 3.22847L12.6211 2.45019C12.1879 2.15834 11.6047 2.21605 11.2357 2.5854L9.0778 4.74539C8.70222 5.12133 8.64787 5.69019 8.94272 6.13209L9.72026 7.29288L8.75 9.63754L7.37946 9.90796C6.86718 10.0085 6.49486 10.462 6.49486 10.9847V14.04C6.49486 14.5627 6.86714 15.0161 7.37946 15.1167ZM7.55078 10.9847C7.55078 10.9632 7.56231 10.9484 7.58373 10.9451L9.23099 10.6203C9.40395 10.5856 9.54891 10.4669 9.61645 10.3037L10.8041 7.43468C10.8717 7.27145 10.8536 7.08513 10.7547 6.93837L9.81904 5.5418C9.80751 5.52366 9.80916 5.50552 9.82398 5.49068L11.9819 3.33069C11.9967 3.31585 12.0149 3.3142 12.033 3.32574L13.4282 4.26231C13.5748 4.36124 13.761 4.37938 13.9241 4.31178L16.7887 3.12296C16.9518 3.05536 17.0704 2.91026 17.105 2.73713L17.4295 1.08831C17.4344 1.06687 17.4476 1.05533 17.469 1.05533H20.5215C20.5429 1.05533 20.5577 1.06687 20.561 1.08831L20.8855 2.73713C20.9201 2.91026 21.0387 3.05536 21.2018 3.12296L24.0664 4.31178C24.2295 4.37938 24.4156 4.36124 24.5623 4.26231L25.9575 3.32574C25.9756 3.3142 25.9937 3.31585 26.0086 3.33069L28.1665 5.49068C28.1813 5.50552 28.183 5.52366 28.1714 5.5418L27.2358 6.93837C27.1369 7.08512 27.1188 7.27144 27.1864 7.43468L28.374 10.3037C28.4416 10.4669 28.5865 10.5856 28.7595 10.6203L30.4068 10.9451C30.4282 10.95 30.4397 10.9632 30.4397 10.9847V14.04C30.4397 14.0614 30.4282 14.0763 30.4068 14.0796L28.7595 14.4044C28.5865 14.439 28.4416 14.5577 28.374 14.721L27.1864 17.59C27.1188 17.7532 27.1369 17.9395 27.2358 18.0863L28.1714 19.4828C28.183 19.501 28.1813 19.5191 28.1665 19.534L26.0086 21.694C25.9937 21.7088 25.9756 21.7104 25.9575 21.6989L24.5623 20.7623C24.4156 20.6634 24.2295 20.6453 24.0664 20.7129L21.2018 21.9017C21.0387 21.9693 20.9201 22.1144 20.8855 22.2875L20.561 23.9363C20.556 23.9578 20.5429 23.9693 20.5215 23.9693H17.469C17.4476 23.9693 17.4328 23.9578 17.4295 23.9363L17.105 22.2875C17.0704 22.1144 16.9518 21.9693 16.7887 21.9017L13.9241 20.7129C13.8598 20.6865 13.7906 20.6733 13.7215 20.6733C13.6177 20.6733 13.5155 20.703 13.4282 20.7623L12.033 21.6989C12.0149 21.7104 11.9968 21.7088 11.9819 21.694L9.82399 19.534C9.80916 19.5191 9.80752 19.501 9.81905 19.4828L10.7547 18.0863C10.8536 17.9395 10.8717 17.7532 10.8041 17.59L9.61646 14.721C9.54892 14.5577 9.40396 14.439 9.23099 14.4044L7.58374 14.0796C7.56232 14.0746 7.55079 14.0614 7.55079 14.04L7.55078 10.9847ZM13.7431 18.3584C13.2687 18.7294 12.7811 19.0789 12.2836 19.3988C12.0382 19.5571 11.9673 19.8836 12.1255 20.1293C12.2259 20.2859 12.3956 20.3716 12.5702 20.3716C12.6674 20.3716 12.7663 20.3453 12.8552 20.2876C13.4499 19.905 14.033 19.4812 14.5964 19.0278C15.8533 19.8803 17.3671 20.3799 18.9964 20.3799C23.3303 20.3799 26.8557 16.8513 26.8557 12.5131C26.8557 8.17513 23.3305 4.64634 18.9964 4.64634C14.6623 4.64634 11.1372 8.17488 11.1372 12.5131C11.1372 14.8314 12.1436 16.9173 13.7431 18.3584ZM19.2695 12.6237C19.0125 12.4868 18.693 12.5858 18.5562 12.8446C17.7408 14.3896 16.4214 16.0055 14.8663 17.4118C14.0262 13.8437 16.1314 12.0215 18.1741 10.2559C19.09 9.46443 19.9663 8.70595 20.4605 7.83042C21.7915 9.69363 22.0419 12.0185 21.0865 14.0797C20.1525 16.0962 18.2878 17.4268 16.0442 17.7533C17.4856 16.3699 18.7029 14.8249 19.4887 13.3377C19.6254 13.0804 19.5266 12.7606 19.2679 12.6237L19.2695 12.6237ZM18.9961 5.70202C22.7469 5.70202 25.7994 8.75734 25.7994 12.5118C25.7994 16.2662 22.747 19.3217 18.9961 19.3217C18.0522 19.3217 17.1527 19.1271 16.3341 18.7792C18.8692 18.3686 20.9762 16.8319 22.0452 14.5235C23.3021 11.8095 22.7815 8.71112 20.6878 6.43935C20.5544 6.29425 20.3501 6.23489 20.159 6.28931C19.9679 6.34207 19.823 6.49706 19.7835 6.69162C19.5874 7.63807 18.6139 8.48228 17.4839 9.45839C16.3917 10.4032 15.153 11.4749 14.3837 12.8979C13.7412 14.085 13.5073 15.3579 13.6786 16.7562C12.7496 15.5921 12.1944 14.1164 12.1944 12.5153C12.1944 8.76087 15.2469 5.70546 18.9978 5.70546L18.9961 5.70202ZM37.9925 16.174C37.9332 16.7231 37.6301 17.78 37.3731 18.5286C37.3715 18.5335 37.3699 18.5385 37.3682 18.5417L33.6042 28.5946C32.9732 30.2566 32.12 31.0761 31.4347 31.734C31.2963 31.8676 31.1646 31.9945 31.0427 32.1198C30.7807 32.3919 30.532 32.6293 30.2915 32.8585C29.0989 34.0028 28.3098 34.758 28.0232 37.5249C27.9952 37.7969 27.7662 37.9981 27.4994 37.9981C27.4813 37.9981 27.4631 37.9965 27.445 37.9948C27.1551 37.9651 26.9442 37.7046 26.9739 37.4144C27.3 34.2618 28.2983 33.3055 29.5617 32.0938C29.794 31.8712 30.0345 31.6404 30.2849 31.3831C30.42 31.243 30.5583 31.1111 30.7049 30.9709C31.3457 30.3559 32.0722 29.6584 32.6175 28.2206L36.3782 18.1758C36.6302 17.4404 36.851 16.6342 36.9251 16.1956C36.8213 15.9993 36.6368 15.7685 36.3403 15.7652H36.3354C35.8363 15.7652 35.0324 16.3918 34.2664 18.1527C33.5647 19.7653 32.601 21.6994 31.812 23.0812C31.7329 23.2181 31.5501 23.5314 31.3919 23.8001C31.4232 23.9386 31.4414 24.0837 31.443 24.2354C31.4694 25.9271 29.5997 27.787 27.8454 29.3977C27.6708 29.5577 27.5192 29.6962 27.4022 29.8099C27.1914 30.0111 26.8586 30.0045 26.656 29.7935C26.4551 29.5824 26.4617 29.2493 26.6725 29.0465C26.7977 28.9262 26.9525 28.7844 27.1321 28.6195C28.1962 27.6434 30.4085 25.6104 30.3888 24.2516C30.3838 23.9548 30.2669 23.7173 30.0181 23.503C29.5734 23.1188 28.9688 23.2969 28.221 24.0306C26.6214 25.602 25.0878 26.8996 23.1344 28.4843C20.6519 30.6541 20.8496 34.5786 20.9946 37.4443C21.0094 37.7361 20.7854 37.9834 20.4938 37.9983C20.4855 37.9983 20.4757 37.9999 20.4674 37.9999C20.189 37.9999 19.9551 37.7806 19.9403 37.4987C19.8513 35.7328 19.7937 34.0097 20.0704 32.3427C20.4081 30.308 21.1856 28.7828 22.4491 27.6831C22.454 27.6781 22.459 27.6748 22.4639 27.6715C24.3978 26.1035 25.9117 24.8223 27.483 23.2791C29.1254 21.6649 30.285 22.3392 30.7084 22.7053C30.7315 22.7251 30.7545 22.7465 30.7776 22.7679C30.8286 22.6789 30.8715 22.6064 30.8978 22.5602C31.6589 21.2312 32.6242 19.2922 33.3012 17.7355C34.451 15.0924 35.7046 14.7082 36.352 14.7132C37.0488 14.7198 37.65 15.1699 37.9597 15.9168C37.9927 15.9993 38.0058 16.0883 37.9976 16.1757L37.9925 16.174ZM17.9254 32.3427C18.2021 34.0097 18.1444 35.7327 18.0555 37.4987C18.0407 37.7807 17.8084 38 17.5284 38C17.5201 38 17.5102 38 17.502 37.9984C17.2104 37.9835 16.9864 37.7362 17.0012 37.4443C17.1462 34.5786 17.3439 30.6544 14.8614 28.4843C12.9061 26.8998 11.3741 25.6021 9.77483 24.0307C9.02698 23.2969 8.42242 23.1189 7.97765 23.5031C7.72891 23.7174 7.61195 23.9565 7.60701 24.2516C7.5856 25.6119 9.79953 27.6433 10.8637 28.6196C11.0433 28.7844 11.1981 28.9262 11.3233 29.0466C11.5341 29.2478 11.5407 29.5825 11.3397 29.7935C11.1388 30.0046 10.8044 30.0112 10.5935 29.81C10.4766 29.6979 10.325 29.5594 10.1504 29.3978C8.39604 27.7869 6.52638 25.927 6.55278 24.2355C6.55443 24.0854 6.57255 23.9403 6.60384 23.8002C6.43747 23.5182 6.25627 23.2066 6.18379 23.0813C5.39474 21.7012 4.4311 19.7671 3.72935 18.1545C2.96336 16.3935 2.15947 15.767 1.66038 15.767H1.65544C1.35893 15.7703 1.17445 16.0011 1.07066 16.1973C1.14479 16.6359 1.36553 17.4422 1.61757 18.1776L5.37832 28.2241C5.92194 29.6586 6.64837 30.3577 7.28915 30.9727C7.43576 31.1129 7.57413 31.2464 7.7092 31.3849C7.95794 31.6421 8.19846 31.873 8.43234 32.0956C9.69581 33.3075 10.6941 34.2638 11.0202 37.4162C11.0499 37.7064 10.839 37.9653 10.5491 37.9966C10.531 37.9983 10.5128 37.9999 10.4947 37.9999C10.2279 37.9999 9.99888 37.7971 9.97088 37.5267C9.68425 34.7599 8.89684 34.0047 7.70258 32.8603C7.46208 32.6311 7.215 32.3937 6.95144 32.1216C6.82954 31.9963 6.69776 31.8694 6.55939 31.7358C5.87412 31.0779 5.02084 30.2568 4.39158 28.598L0.627533 18.5435C0.625886 18.5386 0.624239 18.5336 0.622592 18.5303C0.365614 17.7818 0.0625271 16.7248 0.00319339 16.1758C-0.0066905 16.0867 0.00648786 15.9977 0.0410806 15.9169C0.350771 15.17 0.950358 14.7199 1.64883 14.7132H1.66365C2.3127 14.7132 3.55803 15.1122 4.70123 17.7356C5.37827 19.2921 6.3452 21.2311 7.1046 22.5602C7.13096 22.6064 7.17378 22.6806 7.22485 22.768C7.24791 22.7466 7.26933 22.7268 7.29404 22.7053C7.71739 22.3409 8.87707 21.6666 10.5194 23.2792C12.0909 24.8224 13.6047 26.1036 15.5385 27.6716C15.5435 27.6749 15.5484 27.6798 15.5533 27.6831C16.8168 28.7829 17.5943 30.3064 17.932 32.3427L17.9254 32.3427Z" fill="white"/>
</svg>
